<svg width="1363" height="163" viewBox="0 0 1363 163" fill="none" xmlns="http://www.w3.org/2000/svg">
<path d="M0 15C0 6.71573 6.71573 0 15 0H37V163H15C6.71573 163 0 156.284 0 148V15Z" fill="#111111"/>
<rect width="1097" height="163" transform="translate(37)" fill="#F0F0F0"/>
<path d="M101.906 53.9219L94.3945 51.2383V48.0859L104.602 52.375V54.6367L101.906 53.9219ZM94.3945 56.1719L101.918 53.4297L104.602 52.7852V55.0352L94.3945 59.3242V56.1719ZM115.805 56.5352C115.805 56.2305 115.758 55.957 115.664 55.7148C115.578 55.4648 115.414 55.2383 115.172 55.0352C114.93 54.8242 114.59 54.6172 114.152 54.4141C113.715 54.2109 113.148 54 112.453 53.7812C111.68 53.5312 110.945 53.25 110.25 52.9375C109.562 52.625 108.953 52.2617 108.422 51.8477C107.898 51.4258 107.484 50.9375 107.18 50.3828C106.883 49.8281 106.734 49.1836 106.734 48.4492C106.734 47.7383 106.891 47.0938 107.203 46.5156C107.516 45.9297 107.953 45.4297 108.516 45.0156C109.078 44.5938 109.742 44.2695 110.508 44.043C111.281 43.8164 112.129 43.7031 113.051 43.7031C114.309 43.7031 115.406 43.9297 116.344 44.3828C117.281 44.8359 118.008 45.457 118.523 46.2461C119.047 47.0352 119.309 47.9375 119.309 48.9531H115.816C115.816 48.4531 115.711 48.0156 115.5 47.6406C115.297 47.2578 114.984 46.957 114.562 46.7383C114.148 46.5195 113.625 46.4102 112.992 46.4102C112.383 46.4102 111.875 46.5039 111.469 46.6914C111.062 46.8711 110.758 47.1172 110.555 47.4297C110.352 47.7344 110.25 48.0781 110.25 48.4609C110.25 48.75 110.32 49.0117 110.461 49.2461C110.609 49.4805 110.828 49.6992 111.117 49.9023C111.406 50.1055 111.762 50.2969 112.184 50.4766C112.605 50.6562 113.094 50.832 113.648 51.0039C114.578 51.2852 115.395 51.6016 116.098 51.9531C116.809 52.3047 117.402 52.6992 117.879 53.1367C118.355 53.5742 118.715 54.0703 118.957 54.625C119.199 55.1797 119.32 55.8086 119.32 56.5117C119.32 57.2539 119.176 57.918 118.887 58.5039C118.598 59.0898 118.18 59.5859 117.633 59.9922C117.086 60.3984 116.434 60.707 115.676 60.918C114.918 61.1289 114.07 61.2344 113.133 61.2344C112.289 61.2344 111.457 61.125 110.637 60.9062C109.816 60.6797 109.07 60.3398 108.398 59.8867C107.734 59.4336 107.203 58.8555 106.805 58.1523C106.406 57.4492 106.207 56.6172 106.207 55.6562H109.734C109.734 56.1875 109.816 56.6367 109.98 57.0039C110.145 57.3711 110.375 57.668 110.672 57.8945C110.977 58.1211 111.336 58.2852 111.75 58.3867C112.172 58.4883 112.633 58.5391 113.133 58.5391C113.742 58.5391 114.242 58.4531 114.633 58.2812C115.031 58.1094 115.324 57.8711 115.512 57.5664C115.707 57.2617 115.805 56.918 115.805 56.5352ZM124.793 43V61H121.418V43H124.793ZM124.312 54.2148H123.387C123.395 53.332 123.512 52.5195 123.738 51.7773C123.965 51.0273 124.289 50.3789 124.711 49.832C125.133 49.2773 125.637 48.8477 126.223 48.543C126.816 48.2383 127.473 48.0859 128.191 48.0859C128.816 48.0859 129.383 48.1758 129.891 48.3555C130.406 48.5273 130.848 48.8086 131.215 49.1992C131.59 49.582 131.879 50.0859 132.082 50.7109C132.285 51.3359 132.387 52.0938 132.387 52.9844V61H128.988V52.9609C128.988 52.3984 128.906 51.957 128.742 51.6367C128.586 51.3086 128.355 51.0781 128.051 50.9453C127.754 50.8047 127.387 50.7344 126.949 50.7344C126.465 50.7344 126.051 50.8242 125.707 51.0039C125.371 51.1836 125.102 51.4336 124.898 51.7539C124.695 52.0664 124.547 52.4336 124.453 52.8555C124.359 53.2773 124.312 53.7305 124.312 54.2148ZM141.797 58.1406V52.4922C141.797 52.0859 141.73 51.7383 141.598 51.4492C141.465 51.1523 141.258 50.9219 140.977 50.7578C140.703 50.5938 140.348 50.5117 139.91 50.5117C139.535 50.5117 139.211 50.5781 138.938 50.7109C138.664 50.8359 138.453 51.0195 138.305 51.2617C138.156 51.4961 138.082 51.7734 138.082 52.0938H134.707C134.707 51.5547 134.832 51.043 135.082 50.5586C135.332 50.0742 135.695 49.6484 136.172 49.2812C136.648 48.9062 137.215 48.6133 137.871 48.4023C138.535 48.1914 139.277 48.0859 140.098 48.0859C141.082 48.0859 141.957 48.25 142.723 48.5781C143.488 48.9062 144.09 49.3984 144.527 50.0547C144.973 50.7109 145.195 51.5312 145.195 52.5156V57.9414C145.195 58.6367 145.238 59.207 145.324 59.6523C145.41 60.0898 145.535 60.4727 145.699 60.8008V61H142.289C142.125 60.6562 142 60.2266 141.914 59.7109C141.836 59.1875 141.797 58.6641 141.797 58.1406ZM142.242 53.2773L142.266 55.1875H140.379C139.934 55.1875 139.547 55.2383 139.219 55.3398C138.891 55.4414 138.621 55.5859 138.41 55.7734C138.199 55.9531 138.043 56.1641 137.941 56.4062C137.848 56.6484 137.801 56.9141 137.801 57.2031C137.801 57.4922 137.867 57.7539 138 57.9883C138.133 58.2148 138.324 58.3945 138.574 58.5273C138.824 58.6523 139.117 58.7148 139.453 58.7148C139.961 58.7148 140.402 58.6133 140.777 58.4102C141.152 58.207 141.441 57.957 141.645 57.6602C141.855 57.3633 141.965 57.082 141.973 56.8164L142.863 58.2461C142.738 58.5664 142.566 58.8984 142.348 59.2422C142.137 59.5859 141.867 59.9102 141.539 60.2148C141.211 60.5117 140.816 60.7578 140.355 60.9531C139.895 61.1406 139.348 61.2344 138.715 61.2344C137.91 61.2344 137.18 61.0742 136.523 60.7539C135.875 60.4258 135.359 59.9766 134.977 59.4062C134.602 58.8281 134.414 58.1719 134.414 57.4375C134.414 56.7734 134.539 56.1836 134.789 55.668C135.039 55.1523 135.406 54.7188 135.891 54.3672C136.383 54.0078 136.996 53.7383 137.73 53.5586C138.465 53.3711 139.316 53.2773 140.285 53.2773H142.242ZM151.172 51.0859V61H147.797V48.3203H150.973L151.172 51.0859ZM154.992 48.2383L154.934 51.3672C154.77 51.3438 154.57 51.3242 154.336 51.3086C154.109 51.2852 153.902 51.2734 153.715 51.2734C153.238 51.2734 152.824 51.3359 152.473 51.4609C152.129 51.5781 151.84 51.7539 151.605 51.9883C151.379 52.2227 151.207 52.5078 151.09 52.8438C150.98 53.1797 150.918 53.5625 150.902 53.9922L150.223 53.7812C150.223 52.9609 150.305 52.207 150.469 51.5195C150.633 50.8242 150.871 50.2188 151.184 49.7031C151.504 49.1875 151.895 48.7891 152.355 48.5078C152.816 48.2266 153.344 48.0859 153.938 48.0859C154.125 48.0859 154.316 48.1016 154.512 48.1328C154.707 48.1562 154.867 48.1914 154.992 48.2383ZM162.188 61.2344C161.203 61.2344 160.32 61.0781 159.539 60.7656C158.758 60.4453 158.094 60.0039 157.547 59.4414C157.008 58.8789 156.594 58.2266 156.305 57.4844C156.016 56.7344 155.871 55.9375 155.871 55.0938V54.625C155.871 53.6641 156.008 52.7852 156.281 51.9883C156.555 51.1914 156.945 50.5 157.453 49.9141C157.969 49.3281 158.594 48.8789 159.328 48.5664C160.062 48.2461 160.891 48.0859 161.812 48.0859C162.711 48.0859 163.508 48.2344 164.203 48.5312C164.898 48.8281 165.48 49.25 165.949 49.7969C166.426 50.3438 166.785 51 167.027 51.7656C167.27 52.5234 167.391 53.3672 167.391 54.2969V55.7031H157.312V53.4531H164.074V53.1953C164.074 52.7266 163.988 52.3086 163.816 51.9414C163.652 51.5664 163.402 51.2695 163.066 51.0508C162.73 50.832 162.301 50.7227 161.777 50.7227C161.332 50.7227 160.949 50.8203 160.629 51.0156C160.309 51.2109 160.047 51.4844 159.844 51.8359C159.648 52.1875 159.5 52.6016 159.398 53.0781C159.305 53.5469 159.258 54.0625 159.258 54.625V55.0938C159.258 55.6016 159.328 56.0703 159.469 56.5C159.617 56.9297 159.824 57.3008 160.09 57.6133C160.363 57.9258 160.691 58.168 161.074 58.3398C161.465 58.5117 161.906 58.5977 162.398 58.5977C163.008 58.5977 163.574 58.4805 164.098 58.2461C164.629 58.0039 165.086 57.6406 165.469 57.1562L167.109 58.9375C166.844 59.3203 166.48 59.6875 166.02 60.0391C165.566 60.3906 165.02 60.6797 164.379 60.9062C163.738 61.125 163.008 61.2344 162.188 61.2344ZM176.168 54.918H171.82V52.1758H176.168C176.84 52.1758 177.387 52.0664 177.809 51.8477C178.23 51.6211 178.539 51.3086 178.734 50.9102C178.93 50.5117 179.027 50.0625 179.027 49.5625C179.027 49.0547 178.93 48.582 178.734 48.1445C178.539 47.707 178.23 47.3555 177.809 47.0898C177.387 46.8242 176.84 46.6914 176.168 46.6914H173.039V61H169.523V43.9375H176.168C177.504 43.9375 178.648 44.1797 179.602 44.6641C180.562 45.1406 181.297 45.8008 181.805 46.6445C182.312 47.4883 182.566 48.4531 182.566 49.5391C182.566 50.6406 182.312 51.5938 181.805 52.3984C181.297 53.2031 180.562 53.8242 179.602 54.2617C178.648 54.6992 177.504 54.918 176.168 54.918ZM188.156 51.0859V61H184.781V48.3203H187.957L188.156 51.0859ZM191.977 48.2383L191.918 51.3672C191.754 51.3438 191.555 51.3242 191.32 51.3086C191.094 51.2852 190.887 51.2734 190.699 51.2734C190.223 51.2734 189.809 51.3359 189.457 51.4609C189.113 51.5781 188.824 51.7539 188.59 51.9883C188.363 52.2227 188.191 52.5078 188.074 52.8438C187.965 53.1797 187.902 53.5625 187.887 53.9922L187.207 53.7812C187.207 52.9609 187.289 52.207 187.453 51.5195C187.617 50.8242 187.855 50.2188 188.168 49.7031C188.488 49.1875 188.879 48.7891 189.34 48.5078C189.801 48.2266 190.328 48.0859 190.922 48.0859C191.109 48.0859 191.301 48.1016 191.496 48.1328C191.691 48.1562 191.852 48.1914 191.977 48.2383ZM192.68 54.7891V54.543C192.68 53.6133 192.812 52.7578 193.078 51.9766C193.344 51.1875 193.73 50.5039 194.238 49.9258C194.746 49.3477 195.371 48.8984 196.113 48.5781C196.855 48.25 197.707 48.0859 198.668 48.0859C199.629 48.0859 200.484 48.25 201.234 48.5781C201.984 48.8984 202.613 49.3477 203.121 49.9258C203.637 50.5039 204.027 51.1875 204.293 51.9766C204.559 52.7578 204.691 53.6133 204.691 54.543V54.7891C204.691 55.7109 204.559 56.5664 204.293 57.3555C204.027 58.1367 203.637 58.8203 203.121 59.4062C202.613 59.9844 201.988 60.4336 201.246 60.7539C200.504 61.0742 199.652 61.2344 198.691 61.2344C197.73 61.2344 196.875 61.0742 196.125 60.7539C195.383 60.4336 194.754 59.9844 194.238 59.4062C193.73 58.8203 193.344 58.1367 193.078 57.3555C192.812 56.5664 192.68 55.7109 192.68 54.7891ZM196.055 54.543V54.7891C196.055 55.3203 196.102 55.8164 196.195 56.2773C196.289 56.7383 196.438 57.1445 196.641 57.4961C196.852 57.8398 197.125 58.1094 197.461 58.3047C197.797 58.5 198.207 58.5977 198.691 58.5977C199.16 58.5977 199.562 58.5 199.898 58.3047C200.234 58.1094 200.504 57.8398 200.707 57.4961C200.91 57.1445 201.059 56.7383 201.152 56.2773C201.254 55.8164 201.305 55.3203 201.305 54.7891V54.543C201.305 54.0273 201.254 53.543 201.152 53.0898C201.059 52.6289 200.906 52.2227 200.695 51.8711C200.492 51.5117 200.223 51.2305 199.887 51.0273C199.551 50.8242 199.145 50.7227 198.668 50.7227C198.191 50.7227 197.785 50.8242 197.449 51.0273C197.121 51.2305 196.852 51.5117 196.641 51.8711C196.438 52.2227 196.289 52.6289 196.195 53.0898C196.102 53.543 196.055 54.0273 196.055 54.543ZM210.141 50.9453V61H206.754V48.3203H209.93L210.141 50.9453ZM209.672 54.2148H208.734C208.734 53.332 208.84 52.5195 209.051 51.7773C209.27 51.0273 209.586 50.3789 210 49.832C210.422 49.2773 210.941 48.8477 211.559 48.543C212.176 48.2383 212.891 48.0859 213.703 48.0859C214.266 48.0859 214.781 48.1719 215.25 48.3438C215.719 48.5078 216.121 48.7695 216.457 49.1289C216.801 49.4805 217.066 49.9414 217.254 50.5117C217.441 51.0742 217.535 51.75 217.535 52.5391V61H214.16V52.9141C214.16 52.3359 214.082 51.8906 213.926 51.5781C213.77 51.2656 213.547 51.0469 213.258 50.9219C212.977 50.7969 212.637 50.7344 212.238 50.7344C211.801 50.7344 211.418 50.8242 211.09 51.0039C210.77 51.1836 210.504 51.4336 210.293 51.7539C210.082 52.0664 209.926 52.4336 209.824 52.8555C209.723 53.2773 209.672 53.7305 209.672 54.2148ZM217.219 53.8281L216.012 53.9805C216.012 53.1523 216.113 52.3828 216.316 51.6719C216.527 50.9609 216.836 50.3359 217.242 49.7969C217.656 49.2578 218.168 48.8398 218.777 48.543C219.387 48.2383 220.09 48.0859 220.887 48.0859C221.496 48.0859 222.051 48.1758 222.551 48.3555C223.051 48.5273 223.477 48.8047 223.828 49.1875C224.188 49.5625 224.461 50.0547 224.648 50.6641C224.844 51.2734 224.941 52.0195 224.941 52.9023V61H221.555V52.9023C221.555 52.3164 221.477 51.8711 221.32 51.5664C221.172 51.2539 220.953 51.0391 220.664 50.9219C220.383 50.7969 220.047 50.7344 219.656 50.7344C219.25 50.7344 218.895 50.8164 218.59 50.9805C218.285 51.1367 218.031 51.3555 217.828 51.6367C217.625 51.918 217.473 52.2461 217.371 52.6211C217.27 52.9883 217.219 53.3906 217.219 53.8281ZM230.93 50.7578V65.875H227.555V48.3203H230.684L230.93 50.7578ZM238.957 54.5195V54.7656C238.957 55.6875 238.848 56.543 238.629 57.332C238.418 58.1211 238.105 58.8086 237.691 59.3945C237.277 59.9727 236.762 60.4258 236.145 60.7539C235.535 61.0742 234.832 61.2344 234.035 61.2344C233.262 61.2344 232.59 61.0781 232.02 60.7656C231.449 60.4531 230.969 60.0156 230.578 59.4531C230.195 58.8828 229.887 58.2227 229.652 57.4727C229.418 56.7227 229.238 55.918 229.113 55.0586V54.4141C229.238 53.4922 229.418 52.6484 229.652 51.8828C229.887 51.1094 230.195 50.4414 230.578 49.8789C230.969 49.3086 231.445 48.8672 232.008 48.5547C232.578 48.2422 233.246 48.0859 234.012 48.0859C234.816 48.0859 235.523 48.2383 236.133 48.543C236.75 48.8477 237.266 49.2852 237.68 49.8555C238.102 50.4258 238.418 51.1055 238.629 51.8945C238.848 52.6836 238.957 53.5586 238.957 54.5195ZM235.57 54.7656V54.5195C235.57 53.9805 235.523 53.4844 235.43 53.0312C235.344 52.5703 235.203 52.168 235.008 51.8242C234.82 51.4805 234.57 51.2148 234.258 51.0273C233.953 50.832 233.582 50.7344 233.145 50.7344C232.684 50.7344 232.289 50.8086 231.961 50.957C231.641 51.1055 231.379 51.3203 231.176 51.6016C230.973 51.8828 230.82 52.2188 230.719 52.6094C230.617 53 230.555 53.4414 230.531 53.9336V55.5625C230.57 56.1406 230.68 56.6602 230.859 57.1211C231.039 57.5742 231.316 57.9336 231.691 58.1992C232.066 58.4648 232.559 58.5977 233.168 58.5977C233.613 58.5977 233.988 58.5 234.293 58.3047C234.598 58.1016 234.844 57.8242 235.031 57.4727C235.227 57.1211 235.363 56.7148 235.441 56.2539C235.527 55.793 235.57 55.2969 235.57 54.7656ZM247.266 48.3203V50.7109H239.883V48.3203H247.266ZM241.711 45.1914H245.086V57.1797C245.086 57.5469 245.133 57.8281 245.227 58.0234C245.328 58.2188 245.477 58.3555 245.672 58.4336C245.867 58.5039 246.113 58.5391 246.41 58.5391C246.621 58.5391 246.809 58.5312 246.973 58.5156C247.145 58.4922 247.289 58.4688 247.406 58.4453L247.418 60.9297C247.129 61.0234 246.816 61.0977 246.48 61.1523C246.145 61.207 245.773 61.2344 245.367 61.2344C244.625 61.2344 243.977 61.1133 243.422 60.8711C242.875 60.6211 242.453 60.2227 242.156 59.6758C241.859 59.1289 241.711 58.4102 241.711 57.5195V45.1914ZM256.043 57.4961C256.043 57.2539 255.973 57.0352 255.832 56.8398C255.691 56.6445 255.43 56.4648 255.047 56.3008C254.672 56.1289 254.129 55.9727 253.418 55.832C252.777 55.6914 252.18 55.5156 251.625 55.3047C251.078 55.0859 250.602 54.8242 250.195 54.5195C249.797 54.2148 249.484 53.8555 249.258 53.4414C249.031 53.0195 248.918 52.5391 248.918 52C248.918 51.4688 249.031 50.9688 249.258 50.5C249.492 50.0312 249.824 49.6172 250.254 49.2578C250.691 48.8906 251.223 48.6055 251.848 48.4023C252.48 48.1914 253.191 48.0859 253.98 48.0859C255.082 48.0859 256.027 48.2617 256.816 48.6133C257.613 48.9648 258.223 49.4492 258.645 50.0664C259.074 50.6758 259.289 51.3711 259.289 52.1523H255.914C255.914 51.8242 255.844 51.5312 255.703 51.2734C255.57 51.0078 255.359 50.8008 255.07 50.6523C254.789 50.4961 254.422 50.418 253.969 50.418C253.594 50.418 253.27 50.4844 252.996 50.6172C252.723 50.7422 252.512 50.9141 252.363 51.1328C252.223 51.3438 252.152 51.5781 252.152 51.8359C252.152 52.0312 252.191 52.207 252.27 52.3633C252.355 52.5117 252.492 52.6484 252.68 52.7734C252.867 52.8984 253.109 53.0156 253.406 53.125C253.711 53.2266 254.086 53.3203 254.531 53.4062C255.445 53.5938 256.262 53.8398 256.98 54.1445C257.699 54.4414 258.27 54.8477 258.691 55.3633C259.113 55.8711 259.324 56.5391 259.324 57.3672C259.324 57.9297 259.199 58.4453 258.949 58.9141C258.699 59.3828 258.34 59.793 257.871 60.1445C257.402 60.4883 256.84 60.7578 256.184 60.9531C255.535 61.1406 254.805 61.2344 253.992 61.2344C252.812 61.2344 251.812 61.0234 250.992 60.6016C250.18 60.1797 249.562 59.6445 249.141 58.9961C248.727 58.3398 248.52 57.668 248.52 56.9805H251.719C251.734 57.4414 251.852 57.8125 252.07 58.0938C252.297 58.375 252.582 58.5781 252.926 58.7031C253.277 58.8281 253.656 58.8906 254.062 58.8906C254.5 58.8906 254.863 58.832 255.152 58.7148C255.441 58.5898 255.66 58.4258 255.809 58.2227C255.965 58.0117 256.043 57.7695 256.043 57.4961Z" fill="#888888"/>
<path d="M104.344 84.875V119H96.1406V84.875H104.344ZM117.727 99.0078V119H109.828V93.6406H117.234L117.727 99.0078ZM116.766 105.453L114.961 105.5C114.961 103.719 115.172 102.078 115.594 100.578C116.016 99.0781 116.641 97.7734 117.469 96.6641C118.297 95.5547 119.312 94.6953 120.516 94.0859C121.734 93.4766 123.141 93.1719 124.734 93.1719C125.844 93.1719 126.852 93.3438 127.758 93.6875C128.664 94.0156 129.445 94.5391 130.102 95.2578C130.758 95.9609 131.258 96.8828 131.602 98.0234C131.961 99.1484 132.141 100.5 132.141 102.078V119H124.242V103.086C124.242 102.008 124.117 101.195 123.867 100.648C123.633 100.102 123.289 99.7344 122.836 99.5469C122.383 99.3594 121.828 99.2656 121.172 99.2656C120.484 99.2656 119.867 99.4219 119.32 99.7344C118.773 100.047 118.305 100.484 117.914 101.047C117.539 101.594 117.25 102.242 117.047 102.992C116.859 103.742 116.766 104.562 116.766 105.453ZM131.25 105.453L129.047 105.5C129.047 103.719 129.242 102.078 129.633 100.578C130.039 99.0781 130.641 97.7734 131.438 96.6641C132.25 95.5547 133.258 94.6953 134.461 94.0859C135.664 93.4766 137.062 93.1719 138.656 93.1719C139.812 93.1719 140.875 93.3438 141.844 93.6875C142.812 94.0312 143.648 94.5859 144.352 95.3516C145.055 96.1172 145.602 97.1328 145.992 98.3984C146.383 99.6484 146.578 101.195 146.578 103.039V119H138.656V103.039C138.656 101.992 138.531 101.203 138.281 100.672C138.047 100.125 137.703 99.7578 137.25 99.5703C136.797 99.3672 136.258 99.2656 135.633 99.2656C134.883 99.2656 134.234 99.4219 133.688 99.7344C133.141 100.047 132.68 100.484 132.305 101.047C131.945 101.594 131.68 102.242 131.508 102.992C131.336 103.742 131.25 104.562 131.25 105.453ZM159.07 98.5156V128.75H151.172V93.6406H158.531L159.07 98.5156ZM174.633 106.016V106.508C174.633 108.352 174.422 110.062 174 111.641C173.578 113.219 172.953 114.594 172.125 115.766C171.297 116.938 170.266 117.852 169.031 118.508C167.812 119.148 166.398 119.469 164.789 119.469C163.273 119.469 161.969 119.133 160.875 118.461C159.781 117.789 158.867 116.859 158.133 115.672C157.398 114.484 156.805 113.125 156.352 111.594C155.898 110.062 155.539 108.445 155.273 106.742V106.109C155.539 104.281 155.898 102.586 156.352 101.023C156.805 99.4453 157.398 98.0703 158.133 96.8984C158.867 95.7266 159.773 94.8125 160.852 94.1562C161.945 93.5 163.25 93.1719 164.766 93.1719C166.375 93.1719 167.789 93.4766 169.008 94.0859C170.242 94.6953 171.273 95.5703 172.102 96.7109C172.945 97.8359 173.578 99.1875 174 100.766C174.422 102.344 174.633 104.094 174.633 106.016ZM166.734 106.508V106.016C166.734 105.031 166.664 104.133 166.523 103.32C166.383 102.492 166.156 101.773 165.844 101.164C165.547 100.555 165.148 100.086 164.648 99.7578C164.148 99.4297 163.531 99.2656 162.797 99.2656C161.953 99.2656 161.242 99.3984 160.664 99.6641C160.102 99.9141 159.648 100.305 159.305 100.836C158.977 101.352 158.742 102 158.602 102.781C158.477 103.547 158.422 104.445 158.438 105.477V107.398C158.406 108.586 158.523 109.633 158.789 110.539C159.055 111.43 159.516 112.125 160.172 112.625C160.828 113.125 161.719 113.375 162.844 113.375C163.594 113.375 164.219 113.203 164.719 112.859C165.219 112.5 165.617 112.008 165.914 111.383C166.211 110.742 166.422 110.008 166.547 109.18C166.672 108.352 166.734 107.461 166.734 106.508ZM186.492 83V119H178.57V83H186.492ZM203.648 119.469C201.586 119.469 199.742 119.148 198.117 118.508C196.492 117.852 195.117 116.953 193.992 115.812C192.883 114.672 192.031 113.359 191.438 111.875C190.859 110.391 190.57 108.82 190.57 107.164V106.273C190.57 104.414 190.828 102.695 191.344 101.117C191.859 99.5234 192.625 98.1328 193.641 96.9453C194.656 95.7578 195.93 94.8359 197.461 94.1797C198.992 93.5078 200.773 93.1719 202.805 93.1719C204.602 93.1719 206.211 93.4609 207.633 94.0391C209.055 94.6172 210.258 95.4453 211.242 96.5234C212.242 97.6016 213 98.9062 213.516 100.438C214.047 101.969 214.312 103.688 214.312 105.594V108.805H193.594V103.859H206.602V103.25C206.617 102.406 206.469 101.688 206.156 101.094C205.859 100.5 205.422 100.047 204.844 99.7344C204.266 99.4219 203.562 99.2656 202.734 99.2656C201.875 99.2656 201.164 99.4531 200.602 99.8281C200.055 100.203 199.625 100.719 199.312 101.375C199.016 102.016 198.805 102.758 198.68 103.602C198.555 104.445 198.492 105.336 198.492 106.273V107.164C198.492 108.102 198.617 108.953 198.867 109.719C199.133 110.484 199.508 111.141 199.992 111.688C200.492 112.219 201.086 112.633 201.773 112.93C202.477 113.227 203.273 113.375 204.164 113.375C205.242 113.375 206.305 113.172 207.352 112.766C208.398 112.359 209.297 111.688 210.047 110.75L213.633 115.016C213.117 115.75 212.383 116.461 211.43 117.148C210.492 117.836 209.367 118.398 208.055 118.836C206.742 119.258 205.273 119.469 203.648 119.469ZM225.492 99.0078V119H217.594V93.6406H225L225.492 99.0078ZM224.531 105.453L222.727 105.5C222.727 103.719 222.938 102.078 223.359 100.578C223.781 99.0781 224.406 97.7734 225.234 96.6641C226.062 95.5547 227.078 94.6953 228.281 94.0859C229.5 93.4766 230.906 93.1719 232.5 93.1719C233.609 93.1719 234.617 93.3438 235.523 93.6875C236.43 94.0156 237.211 94.5391 237.867 95.2578C238.523 95.9609 239.023 96.8828 239.367 98.0234C239.727 99.1484 239.906 100.5 239.906 102.078V119H232.008V103.086C232.008 102.008 231.883 101.195 231.633 100.648C231.398 100.102 231.055 99.7344 230.602 99.5469C230.148 99.3594 229.594 99.2656 228.938 99.2656C228.25 99.2656 227.633 99.4219 227.086 99.7344C226.539 100.047 226.07 100.484 225.68 101.047C225.305 101.594 225.016 102.242 224.812 102.992C224.625 103.742 224.531 104.562 224.531 105.453ZM239.016 105.453L236.812 105.5C236.812 103.719 237.008 102.078 237.398 100.578C237.805 99.0781 238.406 97.7734 239.203 96.6641C240.016 95.5547 241.023 94.6953 242.227 94.0859C243.43 93.4766 244.828 93.1719 246.422 93.1719C247.578 93.1719 248.641 93.3438 249.609 93.6875C250.578 94.0312 251.414 94.5859 252.117 95.3516C252.82 96.1172 253.367 97.1328 253.758 98.3984C254.148 99.6484 254.344 101.195 254.344 103.039V119H246.422V103.039C246.422 101.992 246.297 101.203 246.047 100.672C245.812 100.125 245.469 99.7578 245.016 99.5703C244.562 99.3672 244.023 99.2656 243.398 99.2656C242.648 99.2656 242 99.4219 241.453 99.7344C240.906 100.047 240.445 100.484 240.07 101.047C239.711 101.594 239.445 102.242 239.273 102.992C239.102 103.742 239.016 104.562 239.016 105.453ZM271.148 119.469C269.086 119.469 267.242 119.148 265.617 118.508C263.992 117.852 262.617 116.953 261.492 115.812C260.383 114.672 259.531 113.359 258.938 111.875C258.359 110.391 258.07 108.82 258.07 107.164V106.273C258.07 104.414 258.328 102.695 258.844 101.117C259.359 99.5234 260.125 98.1328 261.141 96.9453C262.156 95.7578 263.43 94.8359 264.961 94.1797C266.492 93.5078 268.273 93.1719 270.305 93.1719C272.102 93.1719 273.711 93.4609 275.133 94.0391C276.555 94.6172 277.758 95.4453 278.742 96.5234C279.742 97.6016 280.5 98.9062 281.016 100.438C281.547 101.969 281.812 103.688 281.812 105.594V108.805H261.094V103.859H274.102V103.25C274.117 102.406 273.969 101.688 273.656 101.094C273.359 100.5 272.922 100.047 272.344 99.7344C271.766 99.4219 271.062 99.2656 270.234 99.2656C269.375 99.2656 268.664 99.4531 268.102 99.8281C267.555 100.203 267.125 100.719 266.812 101.375C266.516 102.016 266.305 102.758 266.18 103.602C266.055 104.445 265.992 105.336 265.992 106.273V107.164C265.992 108.102 266.117 108.953 266.367 109.719C266.633 110.484 267.008 111.141 267.492 111.688C267.992 112.219 268.586 112.633 269.273 112.93C269.977 113.227 270.773 113.375 271.664 113.375C272.742 113.375 273.805 113.172 274.852 112.766C275.898 112.359 276.797 111.688 277.547 110.75L281.133 115.016C280.617 115.75 279.883 116.461 278.93 117.148C277.992 117.836 276.867 118.398 275.555 118.836C274.242 119.258 272.773 119.469 271.148 119.469ZM292.781 99.0547V119H284.883V93.6406H292.289L292.781 99.0547ZM291.844 105.453L289.992 105.5C289.992 103.562 290.227 101.836 290.695 100.32C291.164 98.7891 291.828 97.4922 292.688 96.4297C293.547 95.3672 294.57 94.5625 295.758 94.0156C296.961 93.4531 298.297 93.1719 299.766 93.1719C300.938 93.1719 302.008 93.3438 302.977 93.6875C303.961 94.0312 304.805 94.5859 305.508 95.3516C306.227 96.1172 306.773 97.1328 307.148 98.3984C307.539 99.6484 307.734 101.195 307.734 103.039V119H299.789V103.016C299.789 102 299.648 101.227 299.367 100.695C299.086 100.148 298.68 99.7734 298.148 99.5703C297.617 99.3672 296.969 99.2656 296.203 99.2656C295.391 99.2656 294.703 99.4219 294.141 99.7344C293.578 100.047 293.125 100.484 292.781 101.047C292.453 101.594 292.211 102.242 292.055 102.992C291.914 103.742 291.844 104.562 291.844 105.453ZM325.477 93.6406V99.125H310.195V93.6406H325.477ZM313.406 87.3359H321.305V110.727C321.305 111.398 321.383 111.922 321.539 112.297C321.695 112.656 321.961 112.914 322.336 113.07C322.727 113.211 323.242 113.281 323.883 113.281C324.336 113.281 324.711 113.273 325.008 113.258C325.305 113.227 325.586 113.188 325.852 113.141V118.789C325.18 119.008 324.477 119.172 323.742 119.281C323.008 119.406 322.227 119.469 321.398 119.469C319.711 119.469 318.266 119.203 317.062 118.672C315.875 118.141 314.969 117.305 314.344 116.164C313.719 115.023 313.406 113.539 313.406 111.711V87.3359ZM341.789 112.625V102.172C341.789 101.453 341.688 100.836 341.484 100.32C341.281 99.8047 340.961 99.4062 340.523 99.125C340.086 98.8281 339.5 98.6797 338.766 98.6797C338.172 98.6797 337.664 98.7812 337.242 98.9844C336.82 99.1875 336.5 99.4922 336.281 99.8984C336.062 100.305 335.953 100.82 335.953 101.445H328.055C328.055 100.273 328.312 99.1875 328.828 98.1875C329.359 97.1719 330.109 96.2891 331.078 95.5391C332.062 94.7891 333.234 94.2109 334.594 93.8047C335.969 93.3828 337.5 93.1719 339.188 93.1719C341.203 93.1719 343 93.5078 344.578 94.1797C346.172 94.8516 347.43 95.8594 348.352 97.2031C349.273 98.5312 349.734 100.203 349.734 102.219V112.602C349.734 114.258 349.828 115.516 350.016 116.375C350.203 117.219 350.469 117.961 350.812 118.602V119H342.891C342.516 118.219 342.234 117.266 342.047 116.141C341.875 115 341.789 113.828 341.789 112.625ZM342.75 103.508L342.797 107.727H339.305C338.57 107.727 337.945 107.828 337.43 108.031C336.93 108.234 336.523 108.516 336.211 108.875C335.914 109.219 335.695 109.609 335.555 110.047C335.43 110.484 335.367 110.945 335.367 111.43C335.367 111.898 335.477 112.32 335.695 112.695C335.93 113.055 336.242 113.336 336.633 113.539C337.023 113.742 337.461 113.844 337.945 113.844C338.82 113.844 339.562 113.68 340.172 113.352C340.797 113.008 341.273 112.594 341.602 112.109C341.93 111.625 342.094 111.172 342.094 110.75L343.828 113.984C343.516 114.609 343.156 115.242 342.75 115.883C342.359 116.523 341.867 117.117 341.273 117.664C340.695 118.195 339.984 118.633 339.141 118.977C338.297 119.305 337.273 119.469 336.07 119.469C334.508 119.469 333.07 119.148 331.758 118.508C330.461 117.867 329.422 116.977 328.641 115.836C327.859 114.68 327.469 113.352 327.469 111.852C327.469 110.539 327.703 109.367 328.172 108.336C328.656 107.305 329.383 106.43 330.352 105.711C331.32 104.992 332.555 104.445 334.055 104.07C335.555 103.695 337.32 103.508 339.352 103.508H342.75ZM367.477 93.6406V99.125H352.195V93.6406H367.477ZM355.406 87.3359H363.305V110.727C363.305 111.398 363.383 111.922 363.539 112.297C363.695 112.656 363.961 112.914 364.336 113.07C364.727 113.211 365.242 113.281 365.883 113.281C366.336 113.281 366.711 113.273 367.008 113.258C367.305 113.227 367.586 113.188 367.852 113.141V118.789C367.18 119.008 366.477 119.172 365.742 119.281C365.008 119.406 364.227 119.469 363.398 119.469C361.711 119.469 360.266 119.203 359.062 118.672C357.875 118.141 356.969 117.305 356.344 116.164C355.719 115.023 355.406 113.539 355.406 111.711V87.3359ZM378.961 93.6406V119H371.039V93.6406H378.961ZM370.57 87.1016C370.57 85.9766 370.977 85.0547 371.789 84.3359C372.602 83.6172 373.656 83.2578 374.953 83.2578C376.25 83.2578 377.305 83.6172 378.117 84.3359C378.93 85.0547 379.336 85.9766 379.336 87.1016C379.336 88.2266 378.93 89.1484 378.117 89.8672C377.305 90.5859 376.25 90.9453 374.953 90.9453C373.656 90.9453 372.602 90.5859 371.789 89.8672C370.977 89.1484 370.57 88.2266 370.57 87.1016ZM382.852 106.578V106.086C382.852 104.227 383.117 102.516 383.648 100.953C384.18 99.375 384.961 98.0078 385.992 96.8516C387.023 95.6953 388.297 94.7969 389.812 94.1562C391.328 93.5 393.078 93.1719 395.062 93.1719C397.062 93.1719 398.82 93.5 400.336 94.1562C401.867 94.7969 403.148 95.6953 404.18 96.8516C405.211 98.0078 405.992 99.375 406.523 100.953C407.055 102.516 407.32 104.227 407.32 106.086V106.578C407.32 108.422 407.055 110.133 406.523 111.711C405.992 113.273 405.211 114.641 404.18 115.812C403.148 116.969 401.875 117.867 400.359 118.508C398.844 119.148 397.094 119.469 395.109 119.469C393.125 119.469 391.367 119.148 389.836 118.508C388.305 117.867 387.023 116.969 385.992 115.812C384.961 114.641 384.18 113.273 383.648 111.711C383.117 110.133 382.852 108.422 382.852 106.578ZM390.75 106.086V106.578C390.75 107.531 390.82 108.422 390.961 109.25C391.102 110.078 391.336 110.805 391.664 111.43C391.992 112.039 392.438 112.516 393 112.859C393.562 113.203 394.266 113.375 395.109 113.375C395.938 113.375 396.625 113.203 397.172 112.859C397.734 112.516 398.18 112.039 398.508 111.43C398.836 110.805 399.07 110.078 399.211 109.25C399.352 108.422 399.422 107.531 399.422 106.578V106.086C399.422 105.164 399.352 104.297 399.211 103.484C399.07 102.656 398.836 101.93 398.508 101.305C398.18 100.664 397.734 100.164 397.172 99.8047C396.609 99.4453 395.906 99.2656 395.062 99.2656C394.234 99.2656 393.539 99.4453 392.977 99.8047C392.43 100.164 391.992 100.664 391.664 101.305C391.336 101.93 391.102 102.656 390.961 103.484C390.82 104.297 390.75 105.164 390.75 106.086ZM418.594 99.0547V119H410.695V93.6406H418.102L418.594 99.0547ZM417.656 105.453L415.805 105.5C415.805 103.562 416.039 101.836 416.508 100.32C416.977 98.7891 417.641 97.4922 418.5 96.4297C419.359 95.3672 420.383 94.5625 421.57 94.0156C422.773 93.4531 424.109 93.1719 425.578 93.1719C426.75 93.1719 427.82 93.3438 428.789 93.6875C429.773 94.0312 430.617 94.5859 431.32 95.3516C432.039 96.1172 432.586 97.1328 432.961 98.3984C433.352 99.6484 433.547 101.195 433.547 103.039V119H425.602V103.016C425.602 102 425.461 101.227 425.18 100.695C424.898 100.148 424.492 99.7734 423.961 99.5703C423.43 99.3672 422.781 99.2656 422.016 99.2656C421.203 99.2656 420.516 99.4219 419.953 99.7344C419.391 100.047 418.938 100.484 418.594 101.047C418.266 101.594 418.023 102.242 417.867 102.992C417.727 103.742 417.656 104.562 417.656 105.453Z" fill="black"/>
<path d="M1134 0H1348C1356.28 0 1363 6.71573 1363 15V148C1363 156.284 1356.28 163 1348 163H1134V0Z" fill="#EA580C"/>
<path d="M1281 46.5H1216L1213.5 49V114L1216 116.5H1281L1283.5 114V49L1281 46.5ZM1278.5 111.5H1233.5V101.5H1245C1246.5 104.5 1250 106.5 1253.5 106.5C1259 106.5 1263.5 102 1263.5 96.5C1263.5 91 1259 86.5 1253.5 86.5C1248 86.5 1243.5 91 1243.5 96.5H1228.5V111.5H1218.5V51.5H1228.5V63C1225.5 64.5 1223.5 68 1223.5 71.5C1223.5 77 1228 81.5 1233.5 81.5C1239 81.5 1243.5 77 1243.5 71.5H1253.5C1253.5 77 1258 81.5 1263.5 81.5C1269 81.5 1273.5 77 1273.5 71.5C1273.5 66 1269 61.5 1263.5 61.5C1260 61.5 1256.5 63.5 1255 66.5H1242C1240.5 63.5 1237 61.5 1233.5 61.5V51.5H1278.5V111.5ZM1248.5 96.5C1248.5 93.5 1250.5 91.5 1253.5 91.5C1256.5 91.5 1258.5 93.5 1258.5 96.5C1258.5 99.5 1256.5 101.5 1253.5 101.5C1250.5 101.5 1248.5 99.5 1248.5 96.5ZM1233.5 66.5C1236.5 66.5 1238.5 68.5 1238.5 71.5C1238.5 74.5 1236.5 76.5 1233.5 76.5C1230.5 76.5 1228.5 74.5 1228.5 71.5C1228.5 68.5 1230.5 66.5 1233.5 66.5ZM1263.5 66.5C1266.5 66.5 1268.5 68.5 1268.5 71.5C1268.5 74.5 1266.5 76.5 1263.5 76.5C1260.5 76.5 1258.5 74.5 1258.5 71.5C1258.5 68.5 1260.5 66.5 1263.5 66.5Z" fill="white"/>
</svg>
