<svg width="1363" height="163" viewBox="0 0 1363 163" fill="none" xmlns="http://www.w3.org/2000/svg">
<path d="M0 15C0 6.71573 6.71573 0 15 0H37V163H15C6.71573 163 0 156.284 0 148V15Z" fill="#111111"/>
<rect width="1097" height="163" transform="translate(37)" fill="#F0F0F0"/>
<path d="M101.906 53.9219L94.3945 51.2383V48.0859L104.602 52.375V54.6367L101.906 53.9219ZM94.3945 56.1719L101.918 53.4297L104.602 52.7852V55.0352L94.3945 59.3242V56.1719ZM115.805 56.5352C115.805 56.2305 115.758 55.957 115.664 55.7148C115.578 55.4648 115.414 55.2383 115.172 55.0352C114.93 54.8242 114.59 54.6172 114.152 54.4141C113.715 54.2109 113.148 54 112.453 53.7812C111.68 53.5312 110.945 53.25 110.25 52.9375C109.562 52.625 108.953 52.2617 108.422 51.8477C107.898 51.4258 107.484 50.9375 107.18 50.3828C106.883 49.8281 106.734 49.1836 106.734 48.4492C106.734 47.7383 106.891 47.0938 107.203 46.5156C107.516 45.9297 107.953 45.4297 108.516 45.0156C109.078 44.5938 109.742 44.2695 110.508 44.043C111.281 43.8164 112.129 43.7031 113.051 43.7031C114.309 43.7031 115.406 43.9297 116.344 44.3828C117.281 44.8359 118.008 45.457 118.523 46.2461C119.047 47.0352 119.309 47.9375 119.309 48.9531H115.816C115.816 48.4531 115.711 48.0156 115.5 47.6406C115.297 47.2578 114.984 46.957 114.562 46.7383C114.148 46.5195 113.625 46.4102 112.992 46.4102C112.383 46.4102 111.875 46.5039 111.469 46.6914C111.062 46.8711 110.758 47.1172 110.555 47.4297C110.352 47.7344 110.25 48.0781 110.25 48.4609C110.25 48.75 110.32 49.0117 110.461 49.2461C110.609 49.4805 110.828 49.6992 111.117 49.9023C111.406 50.1055 111.762 50.2969 112.184 50.4766C112.605 50.6562 113.094 50.832 113.648 51.0039C114.578 51.2852 115.395 51.6016 116.098 51.9531C116.809 52.3047 117.402 52.6992 117.879 53.1367C118.355 53.5742 118.715 54.0703 118.957 54.625C119.199 55.1797 119.32 55.8086 119.32 56.5117C119.32 57.2539 119.176 57.918 118.887 58.5039C118.598 59.0898 118.18 59.5859 117.633 59.9922C117.086 60.3984 116.434 60.707 115.676 60.918C114.918 61.1289 114.07 61.2344 113.133 61.2344C112.289 61.2344 111.457 61.125 110.637 60.9062C109.816 60.6797 109.07 60.3398 108.398 59.8867C107.734 59.4336 107.203 58.8555 106.805 58.1523C106.406 57.4492 106.207 56.6172 106.207 55.6562H109.734C109.734 56.1875 109.816 56.6367 109.98 57.0039C110.145 57.3711 110.375 57.668 110.672 57.8945C110.977 58.1211 111.336 58.2852 111.75 58.3867C112.172 58.4883 112.633 58.5391 113.133 58.5391C113.742 58.5391 114.242 58.4531 114.633 58.2812C115.031 58.1094 115.324 57.8711 115.512 57.5664C115.707 57.2617 115.805 56.918 115.805 56.5352ZM124.793 43V61H121.418V43H124.793ZM124.312 54.2148H123.387C123.395 53.332 123.512 52.5195 123.738 51.7773C123.965 51.0273 124.289 50.3789 124.711 49.832C125.133 49.2773 125.637 48.8477 126.223 48.543C126.816 48.2383 127.473 48.0859 128.191 48.0859C128.816 48.0859 129.383 48.1758 129.891 48.3555C130.406 48.5273 130.848 48.8086 131.215 49.1992C131.59 49.582 131.879 50.0859 132.082 50.7109C132.285 51.3359 132.387 52.0938 132.387 52.9844V61H128.988V52.9609C128.988 52.3984 128.906 51.957 128.742 51.6367C128.586 51.3086 128.355 51.0781 128.051 50.9453C127.754 50.8047 127.387 50.7344 126.949 50.7344C126.465 50.7344 126.051 50.8242 125.707 51.0039C125.371 51.1836 125.102 51.4336 124.898 51.7539C124.695 52.0664 124.547 52.4336 124.453 52.8555C124.359 53.2773 124.312 53.7305 124.312 54.2148ZM141.797 58.1406V52.4922C141.797 52.0859 141.73 51.7383 141.598 51.4492C141.465 51.1523 141.258 50.9219 140.977 50.7578C140.703 50.5938 140.348 50.5117 139.91 50.5117C139.535 50.5117 139.211 50.5781 138.938 50.7109C138.664 50.8359 138.453 51.0195 138.305 51.2617C138.156 51.4961 138.082 51.7734 138.082 52.0938H134.707C134.707 51.5547 134.832 51.043 135.082 50.5586C135.332 50.0742 135.695 49.6484 136.172 49.2812C136.648 48.9062 137.215 48.6133 137.871 48.4023C138.535 48.1914 139.277 48.0859 140.098 48.0859C141.082 48.0859 141.957 48.25 142.723 48.5781C143.488 48.9062 144.09 49.3984 144.527 50.0547C144.973 50.7109 145.195 51.5312 145.195 52.5156V57.9414C145.195 58.6367 145.238 59.207 145.324 59.6523C145.41 60.0898 145.535 60.4727 145.699 60.8008V61H142.289C142.125 60.6562 142 60.2266 141.914 59.7109C141.836 59.1875 141.797 58.6641 141.797 58.1406ZM142.242 53.2773L142.266 55.1875H140.379C139.934 55.1875 139.547 55.2383 139.219 55.3398C138.891 55.4414 138.621 55.5859 138.41 55.7734C138.199 55.9531 138.043 56.1641 137.941 56.4062C137.848 56.6484 137.801 56.9141 137.801 57.2031C137.801 57.4922 137.867 57.7539 138 57.9883C138.133 58.2148 138.324 58.3945 138.574 58.5273C138.824 58.6523 139.117 58.7148 139.453 58.7148C139.961 58.7148 140.402 58.6133 140.777 58.4102C141.152 58.207 141.441 57.957 141.645 57.6602C141.855 57.3633 141.965 57.082 141.973 56.8164L142.863 58.2461C142.738 58.5664 142.566 58.8984 142.348 59.2422C142.137 59.5859 141.867 59.9102 141.539 60.2148C141.211 60.5117 140.816 60.7578 140.355 60.9531C139.895 61.1406 139.348 61.2344 138.715 61.2344C137.91 61.2344 137.18 61.0742 136.523 60.7539C135.875 60.4258 135.359 59.9766 134.977 59.4062C134.602 58.8281 134.414 58.1719 134.414 57.4375C134.414 56.7734 134.539 56.1836 134.789 55.668C135.039 55.1523 135.406 54.7188 135.891 54.3672C136.383 54.0078 136.996 53.7383 137.73 53.5586C138.465 53.3711 139.316 53.2773 140.285 53.2773H142.242ZM151.172 51.0859V61H147.797V48.3203H150.973L151.172 51.0859ZM154.992 48.2383L154.934 51.3672C154.77 51.3438 154.57 51.3242 154.336 51.3086C154.109 51.2852 153.902 51.2734 153.715 51.2734C153.238 51.2734 152.824 51.3359 152.473 51.4609C152.129 51.5781 151.84 51.7539 151.605 51.9883C151.379 52.2227 151.207 52.5078 151.09 52.8438C150.98 53.1797 150.918 53.5625 150.902 53.9922L150.223 53.7812C150.223 52.9609 150.305 52.207 150.469 51.5195C150.633 50.8242 150.871 50.2188 151.184 49.7031C151.504 49.1875 151.895 48.7891 152.355 48.5078C152.816 48.2266 153.344 48.0859 153.938 48.0859C154.125 48.0859 154.316 48.1016 154.512 48.1328C154.707 48.1562 154.867 48.1914 154.992 48.2383ZM162.188 61.2344C161.203 61.2344 160.32 61.0781 159.539 60.7656C158.758 60.4453 158.094 60.0039 157.547 59.4414C157.008 58.8789 156.594 58.2266 156.305 57.4844C156.016 56.7344 155.871 55.9375 155.871 55.0938V54.625C155.871 53.6641 156.008 52.7852 156.281 51.9883C156.555 51.1914 156.945 50.5 157.453 49.9141C157.969 49.3281 158.594 48.8789 159.328 48.5664C160.062 48.2461 160.891 48.0859 161.812 48.0859C162.711 48.0859 163.508 48.2344 164.203 48.5312C164.898 48.8281 165.48 49.25 165.949 49.7969C166.426 50.3438 166.785 51 167.027 51.7656C167.27 52.5234 167.391 53.3672 167.391 54.2969V55.7031H157.312V53.4531H164.074V53.1953C164.074 52.7266 163.988 52.3086 163.816 51.9414C163.652 51.5664 163.402 51.2695 163.066 51.0508C162.73 50.832 162.301 50.7227 161.777 50.7227C161.332 50.7227 160.949 50.8203 160.629 51.0156C160.309 51.2109 160.047 51.4844 159.844 51.8359C159.648 52.1875 159.5 52.6016 159.398 53.0781C159.305 53.5469 159.258 54.0625 159.258 54.625V55.0938C159.258 55.6016 159.328 56.0703 159.469 56.5C159.617 56.9297 159.824 57.3008 160.09 57.6133C160.363 57.9258 160.691 58.168 161.074 58.3398C161.465 58.5117 161.906 58.5977 162.398 58.5977C163.008 58.5977 163.574 58.4805 164.098 58.2461C164.629 58.0039 165.086 57.6406 165.469 57.1562L167.109 58.9375C166.844 59.3203 166.48 59.6875 166.02 60.0391C165.566 60.3906 165.02 60.6797 164.379 60.9062C163.738 61.125 163.008 61.2344 162.188 61.2344ZM176.168 54.918H171.82V52.1758H176.168C176.84 52.1758 177.387 52.0664 177.809 51.8477C178.23 51.6211 178.539 51.3086 178.734 50.9102C178.93 50.5117 179.027 50.0625 179.027 49.5625C179.027 49.0547 178.93 48.582 178.734 48.1445C178.539 47.707 178.23 47.3555 177.809 47.0898C177.387 46.8242 176.84 46.6914 176.168 46.6914H173.039V61H169.523V43.9375H176.168C177.504 43.9375 178.648 44.1797 179.602 44.6641C180.562 45.1406 181.297 45.8008 181.805 46.6445C182.312 47.4883 182.566 48.4531 182.566 49.5391C182.566 50.6406 182.312 51.5938 181.805 52.3984C181.297 53.2031 180.562 53.8242 179.602 54.2617C178.648 54.6992 177.504 54.918 176.168 54.918ZM188.156 51.0859V61H184.781V48.3203H187.957L188.156 51.0859ZM191.977 48.2383L191.918 51.3672C191.754 51.3438 191.555 51.3242 191.32 51.3086C191.094 51.2852 190.887 51.2734 190.699 51.2734C190.223 51.2734 189.809 51.3359 189.457 51.4609C189.113 51.5781 188.824 51.7539 188.59 51.9883C188.363 52.2227 188.191 52.5078 188.074 52.8438C187.965 53.1797 187.902 53.5625 187.887 53.9922L187.207 53.7812C187.207 52.9609 187.289 52.207 187.453 51.5195C187.617 50.8242 187.855 50.2188 188.168 49.7031C188.488 49.1875 188.879 48.7891 189.34 48.5078C189.801 48.2266 190.328 48.0859 190.922 48.0859C191.109 48.0859 191.301 48.1016 191.496 48.1328C191.691 48.1562 191.852 48.1914 191.977 48.2383ZM192.68 54.7891V54.543C192.68 53.6133 192.812 52.7578 193.078 51.9766C193.344 51.1875 193.73 50.5039 194.238 49.9258C194.746 49.3477 195.371 48.8984 196.113 48.5781C196.855 48.25 197.707 48.0859 198.668 48.0859C199.629 48.0859 200.484 48.25 201.234 48.5781C201.984 48.8984 202.613 49.3477 203.121 49.9258C203.637 50.5039 204.027 51.1875 204.293 51.9766C204.559 52.7578 204.691 53.6133 204.691 54.543V54.7891C204.691 55.7109 204.559 56.5664 204.293 57.3555C204.027 58.1367 203.637 58.8203 203.121 59.4062C202.613 59.9844 201.988 60.4336 201.246 60.7539C200.504 61.0742 199.652 61.2344 198.691 61.2344C197.73 61.2344 196.875 61.0742 196.125 60.7539C195.383 60.4336 194.754 59.9844 194.238 59.4062C193.73 58.8203 193.344 58.1367 193.078 57.3555C192.812 56.5664 192.68 55.7109 192.68 54.7891ZM196.055 54.543V54.7891C196.055 55.3203 196.102 55.8164 196.195 56.2773C196.289 56.7383 196.438 57.1445 196.641 57.4961C196.852 57.8398 197.125 58.1094 197.461 58.3047C197.797 58.5 198.207 58.5977 198.691 58.5977C199.16 58.5977 199.562 58.5 199.898 58.3047C200.234 58.1094 200.504 57.8398 200.707 57.4961C200.91 57.1445 201.059 56.7383 201.152 56.2773C201.254 55.8164 201.305 55.3203 201.305 54.7891V54.543C201.305 54.0273 201.254 53.543 201.152 53.0898C201.059 52.6289 200.906 52.2227 200.695 51.8711C200.492 51.5117 200.223 51.2305 199.887 51.0273C199.551 50.8242 199.145 50.7227 198.668 50.7227C198.191 50.7227 197.785 50.8242 197.449 51.0273C197.121 51.2305 196.852 51.5117 196.641 51.8711C196.438 52.2227 196.289 52.6289 196.195 53.0898C196.102 53.543 196.055 54.0273 196.055 54.543ZM210.141 50.9453V61H206.754V48.3203H209.93L210.141 50.9453ZM209.672 54.2148H208.734C208.734 53.332 208.84 52.5195 209.051 51.7773C209.27 51.0273 209.586 50.3789 210 49.832C210.422 49.2773 210.941 48.8477 211.559 48.543C212.176 48.2383 212.891 48.0859 213.703 48.0859C214.266 48.0859 214.781 48.1719 215.25 48.3438C215.719 48.5078 216.121 48.7695 216.457 49.1289C216.801 49.4805 217.066 49.9414 217.254 50.5117C217.441 51.0742 217.535 51.75 217.535 52.5391V61H214.16V52.9141C214.16 52.3359 214.082 51.8906 213.926 51.5781C213.77 51.2656 213.547 51.0469 213.258 50.9219C212.977 50.7969 212.637 50.7344 212.238 50.7344C211.801 50.7344 211.418 50.8242 211.09 51.0039C210.77 51.1836 210.504 51.4336 210.293 51.7539C210.082 52.0664 209.926 52.4336 209.824 52.8555C209.723 53.2773 209.672 53.7305 209.672 54.2148ZM217.219 53.8281L216.012 53.9805C216.012 53.1523 216.113 52.3828 216.316 51.6719C216.527 50.9609 216.836 50.3359 217.242 49.7969C217.656 49.2578 218.168 48.8398 218.777 48.543C219.387 48.2383 220.09 48.0859 220.887 48.0859C221.496 48.0859 222.051 48.1758 222.551 48.3555C223.051 48.5273 223.477 48.8047 223.828 49.1875C224.188 49.5625 224.461 50.0547 224.648 50.6641C224.844 51.2734 224.941 52.0195 224.941 52.9023V61H221.555V52.9023C221.555 52.3164 221.477 51.8711 221.32 51.5664C221.172 51.2539 220.953 51.0391 220.664 50.9219C220.383 50.7969 220.047 50.7344 219.656 50.7344C219.25 50.7344 218.895 50.8164 218.59 50.9805C218.285 51.1367 218.031 51.3555 217.828 51.6367C217.625 51.918 217.473 52.2461 217.371 52.6211C217.27 52.9883 217.219 53.3906 217.219 53.8281ZM230.93 50.7578V65.875H227.555V48.3203H230.684L230.93 50.7578ZM238.957 54.5195V54.7656C238.957 55.6875 238.848 56.543 238.629 57.332C238.418 58.1211 238.105 58.8086 237.691 59.3945C237.277 59.9727 236.762 60.4258 236.145 60.7539C235.535 61.0742 234.832 61.2344 234.035 61.2344C233.262 61.2344 232.59 61.0781 232.02 60.7656C231.449 60.4531 230.969 60.0156 230.578 59.4531C230.195 58.8828 229.887 58.2227 229.652 57.4727C229.418 56.7227 229.238 55.918 229.113 55.0586V54.4141C229.238 53.4922 229.418 52.6484 229.652 51.8828C229.887 51.1094 230.195 50.4414 230.578 49.8789C230.969 49.3086 231.445 48.8672 232.008 48.5547C232.578 48.2422 233.246 48.0859 234.012 48.0859C234.816 48.0859 235.523 48.2383 236.133 48.543C236.75 48.8477 237.266 49.2852 237.68 49.8555C238.102 50.4258 238.418 51.1055 238.629 51.8945C238.848 52.6836 238.957 53.5586 238.957 54.5195ZM235.57 54.7656V54.5195C235.57 53.9805 235.523 53.4844 235.43 53.0312C235.344 52.5703 235.203 52.168 235.008 51.8242C234.82 51.4805 234.57 51.2148 234.258 51.0273C233.953 50.832 233.582 50.7344 233.145 50.7344C232.684 50.7344 232.289 50.8086 231.961 50.957C231.641 51.1055 231.379 51.3203 231.176 51.6016C230.973 51.8828 230.82 52.2188 230.719 52.6094C230.617 53 230.555 53.4414 230.531 53.9336V55.5625C230.57 56.1406 230.68 56.6602 230.859 57.1211C231.039 57.5742 231.316 57.9336 231.691 58.1992C232.066 58.4648 232.559 58.5977 233.168 58.5977C233.613 58.5977 233.988 58.5 234.293 58.3047C234.598 58.1016 234.844 57.8242 235.031 57.4727C235.227 57.1211 235.363 56.7148 235.441 56.2539C235.527 55.793 235.57 55.2969 235.57 54.7656ZM247.266 48.3203V50.7109H239.883V48.3203H247.266ZM241.711 45.1914H245.086V57.1797C245.086 57.5469 245.133 57.8281 245.227 58.0234C245.328 58.2188 245.477 58.3555 245.672 58.4336C245.867 58.5039 246.113 58.5391 246.41 58.5391C246.621 58.5391 246.809 58.5312 246.973 58.5156C247.145 58.4922 247.289 58.4688 247.406 58.4453L247.418 60.9297C247.129 61.0234 246.816 61.0977 246.48 61.1523C246.145 61.207 245.773 61.2344 245.367 61.2344C244.625 61.2344 243.977 61.1133 243.422 60.8711C242.875 60.6211 242.453 60.2227 242.156 59.6758C241.859 59.1289 241.711 58.4102 241.711 57.5195V45.1914ZM256.043 57.4961C256.043 57.2539 255.973 57.0352 255.832 56.8398C255.691 56.6445 255.43 56.4648 255.047 56.3008C254.672 56.1289 254.129 55.9727 253.418 55.832C252.777 55.6914 252.18 55.5156 251.625 55.3047C251.078 55.0859 250.602 54.8242 250.195 54.5195C249.797 54.2148 249.484 53.8555 249.258 53.4414C249.031 53.0195 248.918 52.5391 248.918 52C248.918 51.4688 249.031 50.9688 249.258 50.5C249.492 50.0312 249.824 49.6172 250.254 49.2578C250.691 48.8906 251.223 48.6055 251.848 48.4023C252.48 48.1914 253.191 48.0859 253.98 48.0859C255.082 48.0859 256.027 48.2617 256.816 48.6133C257.613 48.9648 258.223 49.4492 258.645 50.0664C259.074 50.6758 259.289 51.3711 259.289 52.1523H255.914C255.914 51.8242 255.844 51.5312 255.703 51.2734C255.57 51.0078 255.359 50.8008 255.07 50.6523C254.789 50.4961 254.422 50.418 253.969 50.418C253.594 50.418 253.27 50.4844 252.996 50.6172C252.723 50.7422 252.512 50.9141 252.363 51.1328C252.223 51.3438 252.152 51.5781 252.152 51.8359C252.152 52.0312 252.191 52.207 252.27 52.3633C252.355 52.5117 252.492 52.6484 252.68 52.7734C252.867 52.8984 253.109 53.0156 253.406 53.125C253.711 53.2266 254.086 53.3203 254.531 53.4062C255.445 53.5938 256.262 53.8398 256.98 54.1445C257.699 54.4414 258.27 54.8477 258.691 55.3633C259.113 55.8711 259.324 56.5391 259.324 57.3672C259.324 57.9297 259.199 58.4453 258.949 58.9141C258.699 59.3828 258.34 59.793 257.871 60.1445C257.402 60.4883 256.84 60.7578 256.184 60.9531C255.535 61.1406 254.805 61.2344 253.992 61.2344C252.812 61.2344 251.812 61.0234 250.992 60.6016C250.18 60.1797 249.562 59.6445 249.141 58.9961C248.727 58.3398 248.52 57.668 248.52 56.9805H251.719C251.734 57.4414 251.852 57.8125 252.07 58.0938C252.297 58.375 252.582 58.5781 252.926 58.7031C253.277 58.8281 253.656 58.8906 254.062 58.8906C254.5 58.8906 254.863 58.832 255.152 58.7148C255.441 58.5898 255.66 58.4258 255.809 58.2227C255.965 58.0117 256.043 57.7695 256.043 57.4961Z" fill="#888888"/>
<path d="M109.219 107.422H100.734V101.07H109.219C110.375 101.07 111.312 100.875 112.031 100.484C112.75 100.094 113.273 99.5547 113.602 98.8672C113.945 98.1641 114.117 97.375 114.117 96.5C114.117 95.5625 113.945 94.6953 113.602 93.8984C113.273 93.1016 112.75 92.4609 112.031 91.9766C111.312 91.4766 110.375 91.2266 109.219 91.2266H103.828V119H95.6016V84.875H109.219C111.953 84.875 114.305 85.375 116.273 86.375C118.258 87.375 119.781 88.75 120.844 90.5C121.906 92.2344 122.438 94.2188 122.438 96.4531C122.438 98.6562 121.906 100.578 120.844 102.219C119.781 103.859 118.258 105.141 116.273 106.062C114.305 106.969 111.953 107.422 109.219 107.422ZM134.461 99.9219V119H126.562V93.6406H133.945L134.461 99.9219ZM141.961 93.4531L141.82 100.789C141.508 100.758 141.086 100.719 140.555 100.672C140.023 100.625 139.578 100.602 139.219 100.602C138.297 100.602 137.5 100.711 136.828 100.93C136.172 101.133 135.625 101.445 135.188 101.867C134.766 102.273 134.453 102.789 134.25 103.414C134.062 104.039 133.977 104.766 133.992 105.594L132.562 104.656C132.562 102.953 132.727 101.406 133.055 100.016C133.398 98.6094 133.883 97.3984 134.508 96.3828C135.133 95.3516 135.891 94.5625 136.781 94.0156C137.672 93.4531 138.672 93.1719 139.781 93.1719C140.172 93.1719 140.555 93.1953 140.93 93.2422C141.32 93.2891 141.664 93.3594 141.961 93.4531ZM142.852 106.578V106.086C142.852 104.227 143.117 102.516 143.648 100.953C144.18 99.375 144.961 98.0078 145.992 96.8516C147.023 95.6953 148.297 94.7969 149.812 94.1562C151.328 93.5 153.078 93.1719 155.062 93.1719C157.062 93.1719 158.82 93.5 160.336 94.1562C161.867 94.7969 163.148 95.6953 164.18 96.8516C165.211 98.0078 165.992 99.375 166.523 100.953C167.055 102.516 167.32 104.227 167.32 106.086V106.578C167.32 108.422 167.055 110.133 166.523 111.711C165.992 113.273 165.211 114.641 164.18 115.812C163.148 116.969 161.875 117.867 160.359 118.508C158.844 119.148 157.094 119.469 155.109 119.469C153.125 119.469 151.367 119.148 149.836 118.508C148.305 117.867 147.023 116.969 145.992 115.812C144.961 114.641 144.18 113.273 143.648 111.711C143.117 110.133 142.852 108.422 142.852 106.578ZM150.75 106.086V106.578C150.75 107.531 150.82 108.422 150.961 109.25C151.102 110.078 151.336 110.805 151.664 111.43C151.992 112.039 152.438 112.516 153 112.859C153.562 113.203 154.266 113.375 155.109 113.375C155.938 113.375 156.625 113.203 157.172 112.859C157.734 112.516 158.18 112.039 158.508 111.43C158.836 110.805 159.07 110.078 159.211 109.25C159.352 108.422 159.422 107.531 159.422 106.578V106.086C159.422 105.164 159.352 104.297 159.211 103.484C159.07 102.656 158.836 101.93 158.508 101.305C158.18 100.664 157.734 100.164 157.172 99.8047C156.609 99.4453 155.906 99.2656 155.062 99.2656C154.234 99.2656 153.539 99.4453 152.977 99.8047C152.43 100.164 151.992 100.664 151.664 101.305C151.336 101.93 151.102 102.656 150.961 103.484C150.82 104.297 150.75 105.164 150.75 106.086ZM171.422 93.6406H179.344V119.82C179.344 121.852 178.953 123.562 178.172 124.953C177.391 126.359 176.273 127.422 174.82 128.141C173.367 128.875 171.633 129.242 169.617 129.242C168.945 129.242 168.328 129.211 167.766 129.148C167.188 129.102 166.555 129 165.867 128.844V122.867C166.273 122.93 166.648 122.977 166.992 123.008C167.336 123.055 167.711 123.078 168.117 123.078C168.836 123.078 169.438 122.961 169.922 122.727C170.406 122.492 170.773 122.133 171.023 121.648C171.289 121.164 171.422 120.555 171.422 119.82V93.6406ZM170.836 87.1016C170.836 85.9766 171.242 85.0547 172.055 84.3359C172.867 83.6172 173.922 83.2578 175.219 83.2578C176.516 83.2578 177.57 83.6172 178.383 84.3359C179.195 85.0547 179.602 85.9766 179.602 87.1016C179.602 88.2266 179.195 89.1484 178.383 89.8672C177.57 90.5859 176.516 90.9453 175.219 90.9453C173.922 90.9453 172.867 90.5859 172.055 89.8672C171.242 89.1484 170.836 88.2266 170.836 87.1016ZM196.102 119.469C194.039 119.469 192.195 119.148 190.57 118.508C188.945 117.852 187.57 116.953 186.445 115.812C185.336 114.672 184.484 113.359 183.891 111.875C183.312 110.391 183.023 108.82 183.023 107.164V106.273C183.023 104.414 183.281 102.695 183.797 101.117C184.312 99.5234 185.078 98.1328 186.094 96.9453C187.109 95.7578 188.383 94.8359 189.914 94.1797C191.445 93.5078 193.227 93.1719 195.258 93.1719C197.055 93.1719 198.664 93.4609 200.086 94.0391C201.508 94.6172 202.711 95.4453 203.695 96.5234C204.695 97.6016 205.453 98.9062 205.969 100.438C206.5 101.969 206.766 103.688 206.766 105.594V108.805H186.047V103.859H199.055V103.25C199.07 102.406 198.922 101.688 198.609 101.094C198.312 100.5 197.875 100.047 197.297 99.7344C196.719 99.4219 196.016 99.2656 195.188 99.2656C194.328 99.2656 193.617 99.4531 193.055 99.8281C192.508 100.203 192.078 100.719 191.766 101.375C191.469 102.016 191.258 102.758 191.133 103.602C191.008 104.445 190.945 105.336 190.945 106.273V107.164C190.945 108.102 191.07 108.953 191.32 109.719C191.586 110.484 191.961 111.141 192.445 111.688C192.945 112.219 193.539 112.633 194.227 112.93C194.93 113.227 195.727 113.375 196.617 113.375C197.695 113.375 198.758 113.172 199.805 112.766C200.852 112.359 201.75 111.688 202.5 110.75L206.086 115.016C205.57 115.75 204.836 116.461 203.883 117.148C202.945 117.836 201.82 118.398 200.508 118.836C199.195 119.258 197.727 119.469 196.102 119.469ZM220.688 113.375C221.422 113.375 222.047 113.242 222.562 112.977C223.094 112.695 223.492 112.305 223.758 111.805C224.039 111.289 224.172 110.672 224.156 109.953H231.586C231.602 111.859 231.133 113.531 230.18 114.969C229.242 116.391 227.961 117.5 226.336 118.297C224.727 119.078 222.906 119.469 220.875 119.469C218.891 119.469 217.156 119.148 215.672 118.508C214.188 117.852 212.945 116.945 211.945 115.789C210.961 114.617 210.219 113.25 209.719 111.688C209.234 110.125 208.992 108.43 208.992 106.602V106.062C208.992 104.234 209.234 102.539 209.719 100.977C210.219 99.3984 210.961 98.0312 211.945 96.875C212.945 95.7031 214.18 94.7969 215.648 94.1562C217.133 93.5 218.859 93.1719 220.828 93.1719C222.938 93.1719 224.797 93.5703 226.406 94.3672C228.031 95.1641 229.305 96.3203 230.227 97.8359C231.148 99.3516 231.602 101.188 231.586 103.344H224.156C224.172 102.578 224.055 101.891 223.805 101.281C223.555 100.672 223.164 100.188 222.633 99.8281C222.117 99.4531 221.453 99.2656 220.641 99.2656C219.828 99.2656 219.172 99.4453 218.672 99.8047C218.172 100.164 217.789 100.664 217.523 101.305C217.273 101.93 217.102 102.648 217.008 103.461C216.93 104.273 216.891 105.141 216.891 106.062V106.602C216.891 107.539 216.93 108.422 217.008 109.25C217.102 110.062 217.281 110.781 217.547 111.406C217.812 112.016 218.195 112.5 218.695 112.859C219.195 113.203 219.859 113.375 220.688 113.375ZM248.32 93.6406V99.125H233.039V93.6406H248.32ZM236.25 87.3359H244.148V110.727C244.148 111.398 244.227 111.922 244.383 112.297C244.539 112.656 244.805 112.914 245.18 113.07C245.57 113.211 246.086 113.281 246.727 113.281C247.18 113.281 247.555 113.273 247.852 113.258C248.148 113.227 248.43 113.188 248.695 113.141V118.789C248.023 119.008 247.32 119.172 246.586 119.281C245.852 119.406 245.07 119.469 244.242 119.469C242.555 119.469 241.109 119.203 239.906 118.672C238.719 118.141 237.812 117.305 237.188 116.164C236.562 115.023 236.25 113.539 236.25 111.711V87.3359ZM277.406 107.422H268.922V101.07H277.406C278.562 101.07 279.5 100.875 280.219 100.484C280.938 100.094 281.461 99.5547 281.789 98.8672C282.133 98.1641 282.305 97.375 282.305 96.5C282.305 95.5625 282.133 94.6953 281.789 93.8984C281.461 93.1016 280.938 92.4609 280.219 91.9766C279.5 91.4766 278.562 91.2266 277.406 91.2266H272.016V119H263.789V84.875H277.406C280.141 84.875 282.492 85.375 284.461 86.375C286.445 87.375 287.969 88.75 289.031 90.5C290.094 92.2344 290.625 94.2188 290.625 96.4531C290.625 98.6562 290.094 100.578 289.031 102.219C287.969 103.859 286.445 105.141 284.461 106.062C282.492 106.969 280.141 107.422 277.406 107.422ZM302.414 83V119H294.516V83H302.414ZM301.477 105.453L299.625 105.5C299.625 103.719 299.844 102.078 300.281 100.578C300.719 99.0781 301.344 97.7734 302.156 96.6641C302.969 95.5547 303.945 94.6953 305.086 94.0859C306.227 93.4766 307.492 93.1719 308.883 93.1719C310.133 93.1719 311.273 93.3516 312.305 93.7109C313.352 94.0703 314.25 94.6484 315 95.4453C315.766 96.2422 316.352 97.2812 316.758 98.5625C317.18 99.8438 317.391 101.406 317.391 103.25V119H309.445V103.203C309.445 102.172 309.297 101.375 309 100.812C308.719 100.234 308.312 99.8359 307.781 99.6172C307.25 99.3828 306.602 99.2656 305.836 99.2656C304.914 99.2656 304.164 99.4219 303.586 99.7344C303.008 100.047 302.562 100.484 302.25 101.047C301.953 101.594 301.75 102.242 301.641 102.992C301.531 103.742 301.477 104.562 301.477 105.453ZM330.117 93.6406V119H322.195V93.6406H330.117ZM321.727 87.1016C321.727 85.9766 322.133 85.0547 322.945 84.3359C323.758 83.6172 324.812 83.2578 326.109 83.2578C327.406 83.2578 328.461 83.6172 329.273 84.3359C330.086 85.0547 330.492 85.9766 330.492 87.1016C330.492 88.2266 330.086 89.1484 329.273 89.8672C328.461 90.5859 327.406 90.9453 326.109 90.9453C324.812 90.9453 323.758 90.5859 322.945 89.8672C322.133 89.1484 321.727 88.2266 321.727 87.1016ZM343.336 83V119H335.414V83H343.336ZM347.227 106.578V106.086C347.227 104.227 347.492 102.516 348.023 100.953C348.555 99.375 349.336 98.0078 350.367 96.8516C351.398 95.6953 352.672 94.7969 354.188 94.1562C355.703 93.5 357.453 93.1719 359.438 93.1719C361.438 93.1719 363.195 93.5 364.711 94.1562C366.242 94.7969 367.523 95.6953 368.555 96.8516C369.586 98.0078 370.367 99.375 370.898 100.953C371.43 102.516 371.695 104.227 371.695 106.086V106.578C371.695 108.422 371.43 110.133 370.898 111.711C370.367 113.273 369.586 114.641 368.555 115.812C367.523 116.969 366.25 117.867 364.734 118.508C363.219 119.148 361.469 119.469 359.484 119.469C357.5 119.469 355.742 119.148 354.211 118.508C352.68 117.867 351.398 116.969 350.367 115.812C349.336 114.641 348.555 113.273 348.023 111.711C347.492 110.133 347.227 108.422 347.227 106.578ZM355.125 106.086V106.578C355.125 107.531 355.195 108.422 355.336 109.25C355.477 110.078 355.711 110.805 356.039 111.43C356.367 112.039 356.812 112.516 357.375 112.859C357.938 113.203 358.641 113.375 359.484 113.375C360.312 113.375 361 113.203 361.547 112.859C362.109 112.516 362.555 112.039 362.883 111.43C363.211 110.805 363.445 110.078 363.586 109.25C363.727 108.422 363.797 107.531 363.797 106.578V106.086C363.797 105.164 363.727 104.297 363.586 103.484C363.445 102.656 363.211 101.93 362.883 101.305C362.555 100.664 362.109 100.164 361.547 99.8047C360.984 99.4453 360.281 99.2656 359.438 99.2656C358.609 99.2656 357.914 99.4453 357.352 99.8047C356.805 100.164 356.367 100.664 356.039 101.305C355.711 101.93 355.477 102.656 355.336 103.484C355.195 104.297 355.125 105.164 355.125 106.086ZM388.5 111.875C388.5 111.438 388.352 111.062 388.055 110.75C387.773 110.422 387.273 110.125 386.555 109.859C385.836 109.578 384.828 109.297 383.531 109.016C382.297 108.75 381.133 108.398 380.039 107.961C378.961 107.523 378.016 106.992 377.203 106.367C376.391 105.742 375.75 105 375.281 104.141C374.828 103.281 374.602 102.297 374.602 101.188C374.602 100.109 374.828 99.0938 375.281 98.1406C375.75 97.1719 376.43 96.3203 377.32 95.5859C378.227 94.8359 379.328 94.25 380.625 93.8281C381.922 93.3906 383.398 93.1719 385.055 93.1719C387.336 93.1719 389.305 93.5234 390.961 94.2266C392.617 94.9141 393.891 95.8828 394.781 97.1328C395.688 98.3672 396.141 99.7969 396.141 101.422H388.242C388.242 100.781 388.133 100.234 387.914 99.7812C387.711 99.3281 387.375 98.9844 386.906 98.75C386.438 98.5 385.812 98.375 385.031 98.375C384.484 98.375 383.984 98.4766 383.531 98.6797C383.094 98.8828 382.742 99.1641 382.477 99.5234C382.211 99.8828 382.078 100.305 382.078 100.789C382.078 101.133 382.156 101.445 382.312 101.727C382.484 101.992 382.742 102.242 383.086 102.477C383.43 102.695 383.867 102.898 384.398 103.086C384.93 103.258 385.57 103.414 386.32 103.555C388.023 103.867 389.617 104.312 391.102 104.891C392.586 105.469 393.789 106.289 394.711 107.352C395.648 108.414 396.117 109.844 396.117 111.641C396.117 112.766 395.859 113.805 395.344 114.758C394.828 115.695 394.086 116.523 393.117 117.242C392.148 117.945 390.984 118.492 389.625 118.883C388.266 119.273 386.734 119.469 385.031 119.469C382.609 119.469 380.562 119.039 378.891 118.18C377.219 117.305 375.953 116.211 375.094 114.898C374.25 113.57 373.828 112.227 373.828 110.867H381.188C381.219 111.648 381.406 112.289 381.75 112.789C382.109 113.289 382.586 113.656 383.18 113.891C383.773 114.125 384.461 114.242 385.242 114.242C385.961 114.242 386.555 114.141 387.023 113.938C387.508 113.734 387.875 113.461 388.125 113.117C388.375 112.758 388.5 112.344 388.5 111.875ZM398.836 106.578V106.086C398.836 104.227 399.102 102.516 399.633 100.953C400.164 99.375 400.945 98.0078 401.977 96.8516C403.008 95.6953 404.281 94.7969 405.797 94.1562C407.312 93.5 409.062 93.1719 411.047 93.1719C413.047 93.1719 414.805 93.5 416.32 94.1562C417.852 94.7969 419.133 95.6953 420.164 96.8516C421.195 98.0078 421.977 99.375 422.508 100.953C423.039 102.516 423.305 104.227 423.305 106.086V106.578C423.305 108.422 423.039 110.133 422.508 111.711C421.977 113.273 421.195 114.641 420.164 115.812C419.133 116.969 417.859 117.867 416.344 118.508C414.828 119.148 413.078 119.469 411.094 119.469C409.109 119.469 407.352 119.148 405.82 118.508C404.289 117.867 403.008 116.969 401.977 115.812C400.945 114.641 400.164 113.273 399.633 111.711C399.102 110.133 398.836 108.422 398.836 106.578ZM406.734 106.086V106.578C406.734 107.531 406.805 108.422 406.945 109.25C407.086 110.078 407.32 110.805 407.648 111.43C407.977 112.039 408.422 112.516 408.984 112.859C409.547 113.203 410.25 113.375 411.094 113.375C411.922 113.375 412.609 113.203 413.156 112.859C413.719 112.516 414.164 112.039 414.492 111.43C414.82 110.805 415.055 110.078 415.195 109.25C415.336 108.422 415.406 107.531 415.406 106.578V106.086C415.406 105.164 415.336 104.297 415.195 103.484C415.055 102.656 414.82 101.93 414.492 101.305C414.164 100.664 413.719 100.164 413.156 99.8047C412.594 99.4453 411.891 99.2656 411.047 99.2656C410.219 99.2656 409.523 99.4453 408.961 99.8047C408.414 100.164 407.977 100.664 407.648 101.305C407.32 101.93 407.086 102.656 406.945 103.484C406.805 104.297 406.734 105.164 406.734 106.086ZM434.789 98.5156V128.75H426.891V93.6406H434.25L434.789 98.5156ZM450.352 106.016V106.508C450.352 108.352 450.141 110.062 449.719 111.641C449.297 113.219 448.672 114.594 447.844 115.766C447.016 116.938 445.984 117.852 444.75 118.508C443.531 119.148 442.117 119.469 440.508 119.469C438.992 119.469 437.688 119.133 436.594 118.461C435.5 117.789 434.586 116.859 433.852 115.672C433.117 114.484 432.523 113.125 432.07 111.594C431.617 110.062 431.258 108.445 430.992 106.742V106.109C431.258 104.281 431.617 102.586 432.07 101.023C432.523 99.4453 433.117 98.0703 433.852 96.8984C434.586 95.7266 435.492 94.8125 436.57 94.1562C437.664 93.5 438.969 93.1719 440.484 93.1719C442.094 93.1719 443.508 93.4766 444.727 94.0859C445.961 94.6953 446.992 95.5703 447.82 96.7109C448.664 97.8359 449.297 99.1875 449.719 100.766C450.141 102.344 450.352 104.094 450.352 106.016ZM442.453 106.508V106.016C442.453 105.031 442.383 104.133 442.242 103.32C442.102 102.492 441.875 101.773 441.562 101.164C441.266 100.555 440.867 100.086 440.367 99.7578C439.867 99.4297 439.25 99.2656 438.516 99.2656C437.672 99.2656 436.961 99.3984 436.383 99.6641C435.82 99.9141 435.367 100.305 435.023 100.836C434.695 101.352 434.461 102 434.32 102.781C434.195 103.547 434.141 104.445 434.156 105.477V107.398C434.125 108.586 434.242 109.633 434.508 110.539C434.773 111.43 435.234 112.125 435.891 112.625C436.547 113.125 437.438 113.375 438.562 113.375C439.312 113.375 439.938 113.203 440.438 112.859C440.938 112.5 441.336 112.008 441.633 111.383C441.93 110.742 442.141 110.008 442.266 109.18C442.391 108.352 442.453 107.461 442.453 106.508ZM461.602 83V119H453.703V83H461.602ZM460.664 105.453L458.812 105.5C458.812 103.719 459.031 102.078 459.469 100.578C459.906 99.0781 460.531 97.7734 461.344 96.6641C462.156 95.5547 463.133 94.6953 464.273 94.0859C465.414 93.4766 466.68 93.1719 468.07 93.1719C469.32 93.1719 470.461 93.3516 471.492 93.7109C472.539 94.0703 473.438 94.6484 474.188 95.4453C474.953 96.2422 475.539 97.2812 475.945 98.5625C476.367 99.8438 476.578 101.406 476.578 103.25V119H468.633V103.203C468.633 102.172 468.484 101.375 468.188 100.812C467.906 100.234 467.5 99.8359 466.969 99.6172C466.438 99.3828 465.789 99.2656 465.023 99.2656C464.102 99.2656 463.352 99.4219 462.773 99.7344C462.195 100.047 461.75 100.484 461.438 101.047C461.141 101.594 460.938 102.242 460.828 102.992C460.719 103.742 460.664 104.562 460.664 105.453ZM488.742 116.023L495.305 93.6406H503.789L493.594 122.773C493.375 123.414 493.086 124.102 492.727 124.836C492.367 125.586 491.875 126.297 491.25 126.969C490.625 127.641 489.82 128.188 488.836 128.609C487.867 129.031 486.664 129.242 485.227 129.242C484.461 129.242 483.898 129.203 483.539 129.125C483.195 129.062 482.664 128.945 481.945 128.773V123.125C482.148 123.125 482.32 123.125 482.461 123.125C482.617 123.125 482.789 123.125 482.977 123.125C483.82 123.125 484.492 123.039 484.992 122.867C485.508 122.695 485.898 122.445 486.164 122.117C486.445 121.789 486.664 121.391 486.82 120.922L488.742 116.023ZM487.078 93.6406L492.07 111.383L492.938 119.75H487.641L478.617 93.6406H487.078Z" fill="black"/>
<path d="M1134 0H1348C1356.28 0 1363 6.71573 1363 15V148C1363 156.284 1356.28 163 1348 163H1134V0Z" fill="#EA580C"/>
<path d="M1234.26 103.786H1262.74V109.357H1234.26V103.786ZM1239.96 114.929H1257.04V120.5H1239.96V114.929ZM1248.5 42.5C1240.95 42.5 1233.71 45.4349 1228.37 50.6592C1223.03 55.8834 1220.03 62.969 1220.03 70.3571C1219.84 74.4057 1220.63 78.4412 1222.34 82.1315C1224.05 85.8219 1226.64 89.0616 1229.88 91.5843C1232.73 94.175 1234.26 95.6514 1234.26 98.2143H1239.96C1239.96 93.0886 1236.8 90.2193 1233.72 87.4614C1231.06 85.4676 1228.94 82.8658 1227.55 79.8838C1226.15 76.9019 1225.53 73.6308 1225.72 70.3571C1225.72 64.4466 1228.12 58.7781 1232.39 54.5988C1236.67 50.4194 1242.46 48.0714 1248.5 48.0714C1254.54 48.0714 1260.33 50.4194 1264.61 54.5988C1268.88 58.7781 1271.28 64.4466 1271.28 70.3571C1271.47 73.6333 1270.84 76.9059 1269.44 79.888C1268.04 82.8701 1265.92 85.4706 1263.25 87.4614C1260.2 90.2471 1257.04 93.0329 1257.04 98.2143H1262.74C1262.74 95.6514 1264.25 94.175 1267.12 91.5564C1270.36 89.0381 1272.94 85.8031 1274.66 82.1176C1276.37 78.4321 1277.16 74.4014 1276.97 70.3571C1276.97 66.6989 1276.24 63.0765 1274.81 59.6967C1273.37 56.3169 1271.28 53.2459 1268.63 50.6592C1265.99 48.0724 1262.85 46.0205 1259.4 44.6205C1255.94 43.2205 1252.24 42.5 1248.5 42.5V42.5Z" fill="white"/>
</svg>
