<svg width="1363" height="163" viewBox="0 0 1363 163" fill="none" xmlns="http://www.w3.org/2000/svg">
<path d="M0 15C0 6.71573 6.71573 0 15 0H37V163H15C6.71573 163 0 156.284 0 148V15Z" fill="#111111"/>
<rect width="1097" height="163" transform="translate(37)" fill="#F0F0F0"/>
<path d="M101.906 53.9219L94.3945 51.2383V48.0859L104.602 52.375V54.6367L101.906 53.9219ZM94.3945 56.1719L101.918 53.4297L104.602 52.7852V55.0352L94.3945 59.3242V56.1719ZM115.805 56.5352C115.805 56.2305 115.758 55.957 115.664 55.7148C115.578 55.4648 115.414 55.2383 115.172 55.0352C114.93 54.8242 114.59 54.6172 114.152 54.4141C113.715 54.2109 113.148 54 112.453 53.7812C111.68 53.5312 110.945 53.25 110.25 52.9375C109.562 52.625 108.953 52.2617 108.422 51.8477C107.898 51.4258 107.484 50.9375 107.18 50.3828C106.883 49.8281 106.734 49.1836 106.734 48.4492C106.734 47.7383 106.891 47.0938 107.203 46.5156C107.516 45.9297 107.953 45.4297 108.516 45.0156C109.078 44.5938 109.742 44.2695 110.508 44.043C111.281 43.8164 112.129 43.7031 113.051 43.7031C114.309 43.7031 115.406 43.9297 116.344 44.3828C117.281 44.8359 118.008 45.457 118.523 46.2461C119.047 47.0352 119.309 47.9375 119.309 48.9531H115.816C115.816 48.4531 115.711 48.0156 115.5 47.6406C115.297 47.2578 114.984 46.957 114.562 46.7383C114.148 46.5195 113.625 46.4102 112.992 46.4102C112.383 46.4102 111.875 46.5039 111.469 46.6914C111.062 46.8711 110.758 47.1172 110.555 47.4297C110.352 47.7344 110.25 48.0781 110.25 48.4609C110.25 48.75 110.32 49.0117 110.461 49.2461C110.609 49.4805 110.828 49.6992 111.117 49.9023C111.406 50.1055 111.762 50.2969 112.184 50.4766C112.605 50.6562 113.094 50.832 113.648 51.0039C114.578 51.2852 115.395 51.6016 116.098 51.9531C116.809 52.3047 117.402 52.6992 117.879 53.1367C118.355 53.5742 118.715 54.0703 118.957 54.625C119.199 55.1797 119.32 55.8086 119.32 56.5117C119.32 57.2539 119.176 57.918 118.887 58.5039C118.598 59.0898 118.18 59.5859 117.633 59.9922C117.086 60.3984 116.434 60.707 115.676 60.918C114.918 61.1289 114.07 61.2344 113.133 61.2344C112.289 61.2344 111.457 61.125 110.637 60.9062C109.816 60.6797 109.07 60.3398 108.398 59.8867C107.734 59.4336 107.203 58.8555 106.805 58.1523C106.406 57.4492 106.207 56.6172 106.207 55.6562H109.734C109.734 56.1875 109.816 56.6367 109.98 57.0039C110.145 57.3711 110.375 57.668 110.672 57.8945C110.977 58.1211 111.336 58.2852 111.75 58.3867C112.172 58.4883 112.633 58.5391 113.133 58.5391C113.742 58.5391 114.242 58.4531 114.633 58.2812C115.031 58.1094 115.324 57.8711 115.512 57.5664C115.707 57.2617 115.805 56.918 115.805 56.5352ZM124.793 43V61H121.418V43H124.793ZM124.312 54.2148H123.387C123.395 53.332 123.512 52.5195 123.738 51.7773C123.965 51.0273 124.289 50.3789 124.711 49.832C125.133 49.2773 125.637 48.8477 126.223 48.543C126.816 48.2383 127.473 48.0859 128.191 48.0859C128.816 48.0859 129.383 48.1758 129.891 48.3555C130.406 48.5273 130.848 48.8086 131.215 49.1992C131.59 49.582 131.879 50.0859 132.082 50.7109C132.285 51.3359 132.387 52.0938 132.387 52.9844V61H128.988V52.9609C128.988 52.3984 128.906 51.957 128.742 51.6367C128.586 51.3086 128.355 51.0781 128.051 50.9453C127.754 50.8047 127.387 50.7344 126.949 50.7344C126.465 50.7344 126.051 50.8242 125.707 51.0039C125.371 51.1836 125.102 51.4336 124.898 51.7539C124.695 52.0664 124.547 52.4336 124.453 52.8555C124.359 53.2773 124.312 53.7305 124.312 54.2148ZM141.797 58.1406V52.4922C141.797 52.0859 141.73 51.7383 141.598 51.4492C141.465 51.1523 141.258 50.9219 140.977 50.7578C140.703 50.5938 140.348 50.5117 139.91 50.5117C139.535 50.5117 139.211 50.5781 138.938 50.7109C138.664 50.8359 138.453 51.0195 138.305 51.2617C138.156 51.4961 138.082 51.7734 138.082 52.0938H134.707C134.707 51.5547 134.832 51.043 135.082 50.5586C135.332 50.0742 135.695 49.6484 136.172 49.2812C136.648 48.9062 137.215 48.6133 137.871 48.4023C138.535 48.1914 139.277 48.0859 140.098 48.0859C141.082 48.0859 141.957 48.25 142.723 48.5781C143.488 48.9062 144.09 49.3984 144.527 50.0547C144.973 50.7109 145.195 51.5312 145.195 52.5156V57.9414C145.195 58.6367 145.238 59.207 145.324 59.6523C145.41 60.0898 145.535 60.4727 145.699 60.8008V61H142.289C142.125 60.6562 142 60.2266 141.914 59.7109C141.836 59.1875 141.797 58.6641 141.797 58.1406ZM142.242 53.2773L142.266 55.1875H140.379C139.934 55.1875 139.547 55.2383 139.219 55.3398C138.891 55.4414 138.621 55.5859 138.41 55.7734C138.199 55.9531 138.043 56.1641 137.941 56.4062C137.848 56.6484 137.801 56.9141 137.801 57.2031C137.801 57.4922 137.867 57.7539 138 57.9883C138.133 58.2148 138.324 58.3945 138.574 58.5273C138.824 58.6523 139.117 58.7148 139.453 58.7148C139.961 58.7148 140.402 58.6133 140.777 58.4102C141.152 58.207 141.441 57.957 141.645 57.6602C141.855 57.3633 141.965 57.082 141.973 56.8164L142.863 58.2461C142.738 58.5664 142.566 58.8984 142.348 59.2422C142.137 59.5859 141.867 59.9102 141.539 60.2148C141.211 60.5117 140.816 60.7578 140.355 60.9531C139.895 61.1406 139.348 61.2344 138.715 61.2344C137.91 61.2344 137.18 61.0742 136.523 60.7539C135.875 60.4258 135.359 59.9766 134.977 59.4062C134.602 58.8281 134.414 58.1719 134.414 57.4375C134.414 56.7734 134.539 56.1836 134.789 55.668C135.039 55.1523 135.406 54.7188 135.891 54.3672C136.383 54.0078 136.996 53.7383 137.73 53.5586C138.465 53.3711 139.316 53.2773 140.285 53.2773H142.242ZM151.172 51.0859V61H147.797V48.3203H150.973L151.172 51.0859ZM154.992 48.2383L154.934 51.3672C154.77 51.3438 154.57 51.3242 154.336 51.3086C154.109 51.2852 153.902 51.2734 153.715 51.2734C153.238 51.2734 152.824 51.3359 152.473 51.4609C152.129 51.5781 151.84 51.7539 151.605 51.9883C151.379 52.2227 151.207 52.5078 151.09 52.8438C150.98 53.1797 150.918 53.5625 150.902 53.9922L150.223 53.7812C150.223 52.9609 150.305 52.207 150.469 51.5195C150.633 50.8242 150.871 50.2188 151.184 49.7031C151.504 49.1875 151.895 48.7891 152.355 48.5078C152.816 48.2266 153.344 48.0859 153.938 48.0859C154.125 48.0859 154.316 48.1016 154.512 48.1328C154.707 48.1562 154.867 48.1914 154.992 48.2383ZM162.188 61.2344C161.203 61.2344 160.32 61.0781 159.539 60.7656C158.758 60.4453 158.094 60.0039 157.547 59.4414C157.008 58.8789 156.594 58.2266 156.305 57.4844C156.016 56.7344 155.871 55.9375 155.871 55.0938V54.625C155.871 53.6641 156.008 52.7852 156.281 51.9883C156.555 51.1914 156.945 50.5 157.453 49.9141C157.969 49.3281 158.594 48.8789 159.328 48.5664C160.062 48.2461 160.891 48.0859 161.812 48.0859C162.711 48.0859 163.508 48.2344 164.203 48.5312C164.898 48.8281 165.48 49.25 165.949 49.7969C166.426 50.3438 166.785 51 167.027 51.7656C167.27 52.5234 167.391 53.3672 167.391 54.2969V55.7031H157.312V53.4531H164.074V53.1953C164.074 52.7266 163.988 52.3086 163.816 51.9414C163.652 51.5664 163.402 51.2695 163.066 51.0508C162.73 50.832 162.301 50.7227 161.777 50.7227C161.332 50.7227 160.949 50.8203 160.629 51.0156C160.309 51.2109 160.047 51.4844 159.844 51.8359C159.648 52.1875 159.5 52.6016 159.398 53.0781C159.305 53.5469 159.258 54.0625 159.258 54.625V55.0938C159.258 55.6016 159.328 56.0703 159.469 56.5C159.617 56.9297 159.824 57.3008 160.09 57.6133C160.363 57.9258 160.691 58.168 161.074 58.3398C161.465 58.5117 161.906 58.5977 162.398 58.5977C163.008 58.5977 163.574 58.4805 164.098 58.2461C164.629 58.0039 165.086 57.6406 165.469 57.1562L167.109 58.9375C166.844 59.3203 166.48 59.6875 166.02 60.0391C165.566 60.3906 165.02 60.6797 164.379 60.9062C163.738 61.125 163.008 61.2344 162.188 61.2344ZM176.168 54.918H171.82V52.1758H176.168C176.84 52.1758 177.387 52.0664 177.809 51.8477C178.23 51.6211 178.539 51.3086 178.734 50.9102C178.93 50.5117 179.027 50.0625 179.027 49.5625C179.027 49.0547 178.93 48.582 178.734 48.1445C178.539 47.707 178.23 47.3555 177.809 47.0898C177.387 46.8242 176.84 46.6914 176.168 46.6914H173.039V61H169.523V43.9375H176.168C177.504 43.9375 178.648 44.1797 179.602 44.6641C180.562 45.1406 181.297 45.8008 181.805 46.6445C182.312 47.4883 182.566 48.4531 182.566 49.5391C182.566 50.6406 182.312 51.5938 181.805 52.3984C181.297 53.2031 180.562 53.8242 179.602 54.2617C178.648 54.6992 177.504 54.918 176.168 54.918ZM188.156 51.0859V61H184.781V48.3203H187.957L188.156 51.0859ZM191.977 48.2383L191.918 51.3672C191.754 51.3438 191.555 51.3242 191.32 51.3086C191.094 51.2852 190.887 51.2734 190.699 51.2734C190.223 51.2734 189.809 51.3359 189.457 51.4609C189.113 51.5781 188.824 51.7539 188.59 51.9883C188.363 52.2227 188.191 52.5078 188.074 52.8438C187.965 53.1797 187.902 53.5625 187.887 53.9922L187.207 53.7812C187.207 52.9609 187.289 52.207 187.453 51.5195C187.617 50.8242 187.855 50.2188 188.168 49.7031C188.488 49.1875 188.879 48.7891 189.34 48.5078C189.801 48.2266 190.328 48.0859 190.922 48.0859C191.109 48.0859 191.301 48.1016 191.496 48.1328C191.691 48.1562 191.852 48.1914 191.977 48.2383ZM192.68 54.7891V54.543C192.68 53.6133 192.812 52.7578 193.078 51.9766C193.344 51.1875 193.73 50.5039 194.238 49.9258C194.746 49.3477 195.371 48.8984 196.113 48.5781C196.855 48.25 197.707 48.0859 198.668 48.0859C199.629 48.0859 200.484 48.25 201.234 48.5781C201.984 48.8984 202.613 49.3477 203.121 49.9258C203.637 50.5039 204.027 51.1875 204.293 51.9766C204.559 52.7578 204.691 53.6133 204.691 54.543V54.7891C204.691 55.7109 204.559 56.5664 204.293 57.3555C204.027 58.1367 203.637 58.8203 203.121 59.4062C202.613 59.9844 201.988 60.4336 201.246 60.7539C200.504 61.0742 199.652 61.2344 198.691 61.2344C197.73 61.2344 196.875 61.0742 196.125 60.7539C195.383 60.4336 194.754 59.9844 194.238 59.4062C193.73 58.8203 193.344 58.1367 193.078 57.3555C192.812 56.5664 192.68 55.7109 192.68 54.7891ZM196.055 54.543V54.7891C196.055 55.3203 196.102 55.8164 196.195 56.2773C196.289 56.7383 196.438 57.1445 196.641 57.4961C196.852 57.8398 197.125 58.1094 197.461 58.3047C197.797 58.5 198.207 58.5977 198.691 58.5977C199.16 58.5977 199.562 58.5 199.898 58.3047C200.234 58.1094 200.504 57.8398 200.707 57.4961C200.91 57.1445 201.059 56.7383 201.152 56.2773C201.254 55.8164 201.305 55.3203 201.305 54.7891V54.543C201.305 54.0273 201.254 53.543 201.152 53.0898C201.059 52.6289 200.906 52.2227 200.695 51.8711C200.492 51.5117 200.223 51.2305 199.887 51.0273C199.551 50.8242 199.145 50.7227 198.668 50.7227C198.191 50.7227 197.785 50.8242 197.449 51.0273C197.121 51.2305 196.852 51.5117 196.641 51.8711C196.438 52.2227 196.289 52.6289 196.195 53.0898C196.102 53.543 196.055 54.0273 196.055 54.543ZM210.141 50.9453V61H206.754V48.3203H209.93L210.141 50.9453ZM209.672 54.2148H208.734C208.734 53.332 208.84 52.5195 209.051 51.7773C209.27 51.0273 209.586 50.3789 210 49.832C210.422 49.2773 210.941 48.8477 211.559 48.543C212.176 48.2383 212.891 48.0859 213.703 48.0859C214.266 48.0859 214.781 48.1719 215.25 48.3438C215.719 48.5078 216.121 48.7695 216.457 49.1289C216.801 49.4805 217.066 49.9414 217.254 50.5117C217.441 51.0742 217.535 51.75 217.535 52.5391V61H214.16V52.9141C214.16 52.3359 214.082 51.8906 213.926 51.5781C213.77 51.2656 213.547 51.0469 213.258 50.9219C212.977 50.7969 212.637 50.7344 212.238 50.7344C211.801 50.7344 211.418 50.8242 211.09 51.0039C210.77 51.1836 210.504 51.4336 210.293 51.7539C210.082 52.0664 209.926 52.4336 209.824 52.8555C209.723 53.2773 209.672 53.7305 209.672 54.2148ZM217.219 53.8281L216.012 53.9805C216.012 53.1523 216.113 52.3828 216.316 51.6719C216.527 50.9609 216.836 50.3359 217.242 49.7969C217.656 49.2578 218.168 48.8398 218.777 48.543C219.387 48.2383 220.09 48.0859 220.887 48.0859C221.496 48.0859 222.051 48.1758 222.551 48.3555C223.051 48.5273 223.477 48.8047 223.828 49.1875C224.188 49.5625 224.461 50.0547 224.648 50.6641C224.844 51.2734 224.941 52.0195 224.941 52.9023V61H221.555V52.9023C221.555 52.3164 221.477 51.8711 221.32 51.5664C221.172 51.2539 220.953 51.0391 220.664 50.9219C220.383 50.7969 220.047 50.7344 219.656 50.7344C219.25 50.7344 218.895 50.8164 218.59 50.9805C218.285 51.1367 218.031 51.3555 217.828 51.6367C217.625 51.918 217.473 52.2461 217.371 52.6211C217.27 52.9883 217.219 53.3906 217.219 53.8281ZM230.93 50.7578V65.875H227.555V48.3203H230.684L230.93 50.7578ZM238.957 54.5195V54.7656C238.957 55.6875 238.848 56.543 238.629 57.332C238.418 58.1211 238.105 58.8086 237.691 59.3945C237.277 59.9727 236.762 60.4258 236.145 60.7539C235.535 61.0742 234.832 61.2344 234.035 61.2344C233.262 61.2344 232.59 61.0781 232.02 60.7656C231.449 60.4531 230.969 60.0156 230.578 59.4531C230.195 58.8828 229.887 58.2227 229.652 57.4727C229.418 56.7227 229.238 55.918 229.113 55.0586V54.4141C229.238 53.4922 229.418 52.6484 229.652 51.8828C229.887 51.1094 230.195 50.4414 230.578 49.8789C230.969 49.3086 231.445 48.8672 232.008 48.5547C232.578 48.2422 233.246 48.0859 234.012 48.0859C234.816 48.0859 235.523 48.2383 236.133 48.543C236.75 48.8477 237.266 49.2852 237.68 49.8555C238.102 50.4258 238.418 51.1055 238.629 51.8945C238.848 52.6836 238.957 53.5586 238.957 54.5195ZM235.57 54.7656V54.5195C235.57 53.9805 235.523 53.4844 235.43 53.0312C235.344 52.5703 235.203 52.168 235.008 51.8242C234.82 51.4805 234.57 51.2148 234.258 51.0273C233.953 50.832 233.582 50.7344 233.145 50.7344C232.684 50.7344 232.289 50.8086 231.961 50.957C231.641 51.1055 231.379 51.3203 231.176 51.6016C230.973 51.8828 230.82 52.2188 230.719 52.6094C230.617 53 230.555 53.4414 230.531 53.9336V55.5625C230.57 56.1406 230.68 56.6602 230.859 57.1211C231.039 57.5742 231.316 57.9336 231.691 58.1992C232.066 58.4648 232.559 58.5977 233.168 58.5977C233.613 58.5977 233.988 58.5 234.293 58.3047C234.598 58.1016 234.844 57.8242 235.031 57.4727C235.227 57.1211 235.363 56.7148 235.441 56.2539C235.527 55.793 235.57 55.2969 235.57 54.7656ZM247.266 48.3203V50.7109H239.883V48.3203H247.266ZM241.711 45.1914H245.086V57.1797C245.086 57.5469 245.133 57.8281 245.227 58.0234C245.328 58.2188 245.477 58.3555 245.672 58.4336C245.867 58.5039 246.113 58.5391 246.41 58.5391C246.621 58.5391 246.809 58.5312 246.973 58.5156C247.145 58.4922 247.289 58.4688 247.406 58.4453L247.418 60.9297C247.129 61.0234 246.816 61.0977 246.48 61.1523C246.145 61.207 245.773 61.2344 245.367 61.2344C244.625 61.2344 243.977 61.1133 243.422 60.8711C242.875 60.6211 242.453 60.2227 242.156 59.6758C241.859 59.1289 241.711 58.4102 241.711 57.5195V45.1914ZM256.043 57.4961C256.043 57.2539 255.973 57.0352 255.832 56.8398C255.691 56.6445 255.43 56.4648 255.047 56.3008C254.672 56.1289 254.129 55.9727 253.418 55.832C252.777 55.6914 252.18 55.5156 251.625 55.3047C251.078 55.0859 250.602 54.8242 250.195 54.5195C249.797 54.2148 249.484 53.8555 249.258 53.4414C249.031 53.0195 248.918 52.5391 248.918 52C248.918 51.4688 249.031 50.9688 249.258 50.5C249.492 50.0312 249.824 49.6172 250.254 49.2578C250.691 48.8906 251.223 48.6055 251.848 48.4023C252.48 48.1914 253.191 48.0859 253.98 48.0859C255.082 48.0859 256.027 48.2617 256.816 48.6133C257.613 48.9648 258.223 49.4492 258.645 50.0664C259.074 50.6758 259.289 51.3711 259.289 52.1523H255.914C255.914 51.8242 255.844 51.5312 255.703 51.2734C255.57 51.0078 255.359 50.8008 255.07 50.6523C254.789 50.4961 254.422 50.418 253.969 50.418C253.594 50.418 253.27 50.4844 252.996 50.6172C252.723 50.7422 252.512 50.9141 252.363 51.1328C252.223 51.3438 252.152 51.5781 252.152 51.8359C252.152 52.0312 252.191 52.207 252.27 52.3633C252.355 52.5117 252.492 52.6484 252.68 52.7734C252.867 52.8984 253.109 53.0156 253.406 53.125C253.711 53.2266 254.086 53.3203 254.531 53.4062C255.445 53.5938 256.262 53.8398 256.98 54.1445C257.699 54.4414 258.27 54.8477 258.691 55.3633C259.113 55.8711 259.324 56.5391 259.324 57.3672C259.324 57.9297 259.199 58.4453 258.949 58.9141C258.699 59.3828 258.34 59.793 257.871 60.1445C257.402 60.4883 256.84 60.7578 256.184 60.9531C255.535 61.1406 254.805 61.2344 253.992 61.2344C252.812 61.2344 251.812 61.0234 250.992 60.6016C250.18 60.1797 249.562 59.6445 249.141 58.9961C248.727 58.3398 248.52 57.668 248.52 56.9805H251.719C251.734 57.4414 251.852 57.8125 252.07 58.0938C252.297 58.375 252.582 58.5781 252.926 58.7031C253.277 58.8281 253.656 58.8906 254.062 58.8906C254.5 58.8906 254.863 58.832 255.152 58.7148C255.441 58.5898 255.66 58.4258 255.809 58.2227C255.965 58.0117 256.043 57.7695 256.043 57.4961Z" fill="#888888"/>
<path d="M112.125 84.875V119H103.898V84.875H112.125ZM122.391 84.875V91.2266H93.8672V84.875H122.391ZM135.68 119.469C133.617 119.469 131.773 119.148 130.148 118.508C128.523 117.852 127.148 116.953 126.023 115.812C124.914 114.672 124.062 113.359 123.469 111.875C122.891 110.391 122.602 108.82 122.602 107.164V106.273C122.602 104.414 122.859 102.695 123.375 101.117C123.891 99.5234 124.656 98.1328 125.672 96.9453C126.688 95.7578 127.961 94.8359 129.492 94.1797C131.023 93.5078 132.805 93.1719 134.836 93.1719C136.633 93.1719 138.242 93.4609 139.664 94.0391C141.086 94.6172 142.289 95.4453 143.273 96.5234C144.273 97.6016 145.031 98.9062 145.547 100.438C146.078 101.969 146.344 103.688 146.344 105.594V108.805H125.625V103.859H138.633V103.25C138.648 102.406 138.5 101.688 138.188 101.094C137.891 100.5 137.453 100.047 136.875 99.7344C136.297 99.4219 135.594 99.2656 134.766 99.2656C133.906 99.2656 133.195 99.4531 132.633 99.8281C132.086 100.203 131.656 100.719 131.344 101.375C131.047 102.016 130.836 102.758 130.711 103.602C130.586 104.445 130.523 105.336 130.523 106.273V107.164C130.523 108.102 130.648 108.953 130.898 109.719C131.164 110.484 131.539 111.141 132.023 111.688C132.523 112.219 133.117 112.633 133.805 112.93C134.508 113.227 135.305 113.375 136.195 113.375C137.273 113.375 138.336 113.172 139.383 112.766C140.43 112.359 141.328 111.688 142.078 110.75L145.664 115.016C145.148 115.75 144.414 116.461 143.461 117.148C142.523 117.836 141.398 118.398 140.086 118.836C138.773 119.258 137.305 119.469 135.68 119.469ZM160.266 113.375C161 113.375 161.625 113.242 162.141 112.977C162.672 112.695 163.07 112.305 163.336 111.805C163.617 111.289 163.75 110.672 163.734 109.953H171.164C171.18 111.859 170.711 113.531 169.758 114.969C168.82 116.391 167.539 117.5 165.914 118.297C164.305 119.078 162.484 119.469 160.453 119.469C158.469 119.469 156.734 119.148 155.25 118.508C153.766 117.852 152.523 116.945 151.523 115.789C150.539 114.617 149.797 113.25 149.297 111.688C148.812 110.125 148.57 108.43 148.57 106.602V106.062C148.57 104.234 148.812 102.539 149.297 100.977C149.797 99.3984 150.539 98.0312 151.523 96.875C152.523 95.7031 153.758 94.7969 155.227 94.1562C156.711 93.5 158.438 93.1719 160.406 93.1719C162.516 93.1719 164.375 93.5703 165.984 94.3672C167.609 95.1641 168.883 96.3203 169.805 97.8359C170.727 99.3516 171.18 101.188 171.164 103.344H163.734C163.75 102.578 163.633 101.891 163.383 101.281C163.133 100.672 162.742 100.188 162.211 99.8281C161.695 99.4531 161.031 99.2656 160.219 99.2656C159.406 99.2656 158.75 99.4453 158.25 99.8047C157.75 100.164 157.367 100.664 157.102 101.305C156.852 101.93 156.68 102.648 156.586 103.461C156.508 104.273 156.469 105.141 156.469 106.062V106.602C156.469 107.539 156.508 108.422 156.586 109.25C156.68 110.062 156.859 110.781 157.125 111.406C157.391 112.016 157.773 112.5 158.273 112.859C158.773 113.203 159.438 113.375 160.266 113.375ZM182.273 83V119H174.375V83H182.273ZM181.336 105.453L179.484 105.5C179.484 103.719 179.703 102.078 180.141 100.578C180.578 99.0781 181.203 97.7734 182.016 96.6641C182.828 95.5547 183.805 94.6953 184.945 94.0859C186.086 93.4766 187.352 93.1719 188.742 93.1719C189.992 93.1719 191.133 93.3516 192.164 93.7109C193.211 94.0703 194.109 94.6484 194.859 95.4453C195.625 96.2422 196.211 97.2812 196.617 98.5625C197.039 99.8438 197.25 101.406 197.25 103.25V119H189.305V103.203C189.305 102.172 189.156 101.375 188.859 100.812C188.578 100.234 188.172 99.8359 187.641 99.6172C187.109 99.3828 186.461 99.2656 185.695 99.2656C184.773 99.2656 184.023 99.4219 183.445 99.7344C182.867 100.047 182.422 100.484 182.109 101.047C181.812 101.594 181.609 102.242 181.5 102.992C181.391 103.742 181.336 104.562 181.336 105.453ZM231.539 109.93C231.539 109.398 231.461 108.922 231.305 108.5C231.148 108.062 230.859 107.656 230.438 107.281C230.016 106.906 229.406 106.531 228.609 106.156C227.828 105.766 226.797 105.359 225.516 104.938C224.016 104.438 222.57 103.875 221.18 103.25C219.789 102.609 218.547 101.867 217.453 101.023C216.359 100.164 215.492 99.1641 214.852 98.0234C214.211 96.8672 213.891 95.5234 213.891 93.9922C213.891 92.5234 214.219 91.2031 214.875 90.0312C215.531 88.8438 216.445 87.8359 217.617 87.0078C218.805 86.1641 220.195 85.5234 221.789 85.0859C223.383 84.6328 225.125 84.4062 227.016 84.4062C229.516 84.4062 231.719 84.8438 233.625 85.7188C235.547 86.5781 237.047 87.8047 238.125 89.3984C239.219 90.9766 239.766 92.8438 239.766 95H231.586C231.586 94.1406 231.406 93.3828 231.047 92.7266C230.703 92.0703 230.18 91.5547 229.477 91.1797C228.773 90.8047 227.891 90.6172 226.828 90.6172C225.797 90.6172 224.93 90.7734 224.227 91.0859C223.523 91.3984 222.992 91.8203 222.633 92.3516C222.273 92.8672 222.094 93.4375 222.094 94.0625C222.094 94.5781 222.234 95.0469 222.516 95.4688C222.812 95.875 223.227 96.2578 223.758 96.6172C224.305 96.9766 224.961 97.3203 225.727 97.6484C226.508 97.9766 227.383 98.2969 228.352 98.6094C230.164 99.1875 231.773 99.8359 233.18 100.555C234.602 101.258 235.797 102.062 236.766 102.969C237.75 103.859 238.492 104.875 238.992 106.016C239.508 107.156 239.766 108.445 239.766 109.883C239.766 111.414 239.469 112.773 238.875 113.961C238.281 115.148 237.43 116.156 236.32 116.984C235.211 117.797 233.883 118.414 232.336 118.836C230.789 119.258 229.062 119.469 227.156 119.469C225.406 119.469 223.68 119.25 221.977 118.812C220.289 118.359 218.758 117.672 217.383 116.75C216.008 115.812 214.906 114.617 214.078 113.164C213.266 111.695 212.859 109.953 212.859 107.938H221.109C221.109 108.938 221.242 109.781 221.508 110.469C221.773 111.156 222.164 111.711 222.68 112.133C223.195 112.539 223.828 112.836 224.578 113.023C225.328 113.195 226.188 113.281 227.156 113.281C228.203 113.281 229.047 113.133 229.688 112.836C230.328 112.523 230.797 112.117 231.094 111.617C231.391 111.102 231.539 110.539 231.539 109.93ZM256.992 93.6406V99.125H241.711V93.6406H256.992ZM244.922 87.3359H252.82V110.727C252.82 111.398 252.898 111.922 253.055 112.297C253.211 112.656 253.477 112.914 253.852 113.07C254.242 113.211 254.758 113.281 255.398 113.281C255.852 113.281 256.227 113.273 256.523 113.258C256.82 113.227 257.102 113.188 257.367 113.141V118.789C256.695 119.008 255.992 119.172 255.258 119.281C254.523 119.406 253.742 119.469 252.914 119.469C251.227 119.469 249.781 119.203 248.578 118.672C247.391 118.141 246.484 117.305 245.859 116.164C245.234 115.023 244.922 113.539 244.922 111.711V87.3359ZM273.305 112.625V102.172C273.305 101.453 273.203 100.836 273 100.32C272.797 99.8047 272.477 99.4062 272.039 99.125C271.602 98.8281 271.016 98.6797 270.281 98.6797C269.688 98.6797 269.18 98.7812 268.758 98.9844C268.336 99.1875 268.016 99.4922 267.797 99.8984C267.578 100.305 267.469 100.82 267.469 101.445H259.57C259.57 100.273 259.828 99.1875 260.344 98.1875C260.875 97.1719 261.625 96.2891 262.594 95.5391C263.578 94.7891 264.75 94.2109 266.109 93.8047C267.484 93.3828 269.016 93.1719 270.703 93.1719C272.719 93.1719 274.516 93.5078 276.094 94.1797C277.688 94.8516 278.945 95.8594 279.867 97.2031C280.789 98.5312 281.25 100.203 281.25 102.219V112.602C281.25 114.258 281.344 115.516 281.531 116.375C281.719 117.219 281.984 117.961 282.328 118.602V119H274.406C274.031 118.219 273.75 117.266 273.562 116.141C273.391 115 273.305 113.828 273.305 112.625ZM274.266 103.508L274.312 107.727H270.82C270.086 107.727 269.461 107.828 268.945 108.031C268.445 108.234 268.039 108.516 267.727 108.875C267.43 109.219 267.211 109.609 267.07 110.047C266.945 110.484 266.883 110.945 266.883 111.43C266.883 111.898 266.992 112.32 267.211 112.695C267.445 113.055 267.758 113.336 268.148 113.539C268.539 113.742 268.977 113.844 269.461 113.844C270.336 113.844 271.078 113.68 271.688 113.352C272.312 113.008 272.789 112.594 273.117 112.109C273.445 111.625 273.609 111.172 273.609 110.75L275.344 113.984C275.031 114.609 274.672 115.242 274.266 115.883C273.875 116.523 273.383 117.117 272.789 117.664C272.211 118.195 271.5 118.633 270.656 118.977C269.812 119.305 268.789 119.469 267.586 119.469C266.023 119.469 264.586 119.148 263.273 118.508C261.977 117.867 260.938 116.977 260.156 115.836C259.375 114.68 258.984 113.352 258.984 111.852C258.984 110.539 259.219 109.367 259.688 108.336C260.172 107.305 260.898 106.43 261.867 105.711C262.836 104.992 264.07 104.445 265.57 104.07C267.07 103.695 268.836 103.508 270.867 103.508H274.266ZM296.344 113.375C297.078 113.375 297.703 113.242 298.219 112.977C298.75 112.695 299.148 112.305 299.414 111.805C299.695 111.289 299.828 110.672 299.812 109.953H307.242C307.258 111.859 306.789 113.531 305.836 114.969C304.898 116.391 303.617 117.5 301.992 118.297C300.383 119.078 298.562 119.469 296.531 119.469C294.547 119.469 292.812 119.148 291.328 118.508C289.844 117.852 288.602 116.945 287.602 115.789C286.617 114.617 285.875 113.25 285.375 111.688C284.891 110.125 284.648 108.43 284.648 106.602V106.062C284.648 104.234 284.891 102.539 285.375 100.977C285.875 99.3984 286.617 98.0312 287.602 96.875C288.602 95.7031 289.836 94.7969 291.305 94.1562C292.789 93.5 294.516 93.1719 296.484 93.1719C298.594 93.1719 300.453 93.5703 302.062 94.3672C303.688 95.1641 304.961 96.3203 305.883 97.8359C306.805 99.3516 307.258 101.188 307.242 103.344H299.812C299.828 102.578 299.711 101.891 299.461 101.281C299.211 100.672 298.82 100.188 298.289 99.8281C297.773 99.4531 297.109 99.2656 296.297 99.2656C295.484 99.2656 294.828 99.4453 294.328 99.8047C293.828 100.164 293.445 100.664 293.18 101.305C292.93 101.93 292.758 102.648 292.664 103.461C292.586 104.273 292.547 105.141 292.547 106.062V106.602C292.547 107.539 292.586 108.422 292.664 109.25C292.758 110.062 292.938 110.781 293.203 111.406C293.469 112.016 293.852 112.5 294.352 112.859C294.852 113.203 295.516 113.375 296.344 113.375ZM318.586 82.9766V119H310.688V82.9766H318.586ZM334.805 93.6406L323.789 106.555L318.023 112.32L314.578 107.305L319.383 101.047L325.336 93.6406H334.805ZM326.344 119L319.57 107.445L325.406 103.297L335.391 119H326.344Z" fill="black"/>
<path d="M1134 0H1348C1356.28 0 1363 6.71573 1363 15V148C1363 156.284 1356.28 163 1348 163H1134V0Z" fill="#EA580C"/>
<path fill-rule="evenodd" clip-rule="evenodd" d="M1218.75 53C1218.62 53 1218.49 53.0527 1218.4 53.1464C1218.3 53.2402 1218.25 53.3674 1218.25 53.5V109.5C1218.25 109.633 1218.3 109.76 1218.4 109.854C1218.49 109.947 1218.62 110 1218.75 110H1278.25C1278.38 110 1278.51 109.947 1278.6 109.854C1278.7 109.76 1278.75 109.633 1278.75 109.5V64C1278.75 63.8674 1278.7 63.7402 1278.6 63.6464C1278.51 63.5527 1278.38 63.5 1278.25 63.5H1248.5C1247.61 63.5 1246.77 63.1045 1246.2 62.4206L1238.34 53H1218.75ZM1214.15 48.9038C1215.37 47.6848 1217.03 47 1218.75 47H1239.75C1240.64 47 1241.48 47.3955 1242.05 48.0794L1249.91 57.5H1278.25C1279.97 57.5 1281.63 58.1848 1282.85 59.4038C1284.07 60.6228 1284.75 62.2761 1284.75 64V109.5C1284.75 111.224 1284.07 112.877 1282.85 114.096C1281.63 115.315 1279.97 116 1278.25 116H1218.75C1217.03 116 1215.37 115.315 1214.15 114.096C1212.93 112.877 1212.25 111.224 1212.25 109.5V53.5C1212.25 51.7761 1212.93 50.1228 1214.15 48.9038Z" fill="white"/>
<path fill-rule="evenodd" clip-rule="evenodd" d="M1243.97 75.5251C1245.34 76.892 1245.34 79.108 1243.97 80.4749L1237.7 86.75L1243.97 93.0251C1245.34 94.392 1245.34 96.608 1243.97 97.9749C1242.61 99.3417 1240.39 99.3417 1239.03 97.9749L1230.28 89.2249C1228.91 87.858 1228.91 85.642 1230.28 84.2751L1239.03 75.5251C1240.39 74.1583 1242.61 74.1583 1243.97 75.5251Z" fill="white"/>
<path fill-rule="evenodd" clip-rule="evenodd" d="M1252.28 97.9749C1250.91 96.608 1250.91 94.392 1252.28 93.0251L1258.55 86.75L1252.28 80.4749C1250.91 79.108 1250.91 76.892 1252.28 75.5251C1253.64 74.1583 1255.86 74.1583 1257.22 75.5251L1265.97 84.2751C1267.34 85.642 1267.34 87.858 1265.97 89.2249L1257.22 97.9749C1255.86 99.3417 1253.64 99.3417 1252.28 97.9749Z" fill="white"/>
</svg>
