<svg width="1363" height="163" viewBox="0 0 1363 163" fill="none" xmlns="http://www.w3.org/2000/svg">
<path d="M0 15C0 6.71573 6.71573 0 15 0H37V163H15C6.71573 163 0 156.284 0 148V15Z" fill="#111111"/>
<rect width="1097" height="163" transform="translate(37)" fill="#F0F0F0"/>
<path d="M101.906 53.9219L94.3945 51.2383V48.0859L104.602 52.375V54.6367L101.906 53.9219ZM94.3945 56.1719L101.918 53.4297L104.602 52.7852V55.0352L94.3945 59.3242V56.1719ZM115.805 56.5352C115.805 56.2305 115.758 55.957 115.664 55.7148C115.578 55.4648 115.414 55.2383 115.172 55.0352C114.93 54.8242 114.59 54.6172 114.152 54.4141C113.715 54.2109 113.148 54 112.453 53.7812C111.68 53.5312 110.945 53.25 110.25 52.9375C109.562 52.625 108.953 52.2617 108.422 51.8477C107.898 51.4258 107.484 50.9375 107.18 50.3828C106.883 49.8281 106.734 49.1836 106.734 48.4492C106.734 47.7383 106.891 47.0938 107.203 46.5156C107.516 45.9297 107.953 45.4297 108.516 45.0156C109.078 44.5938 109.742 44.2695 110.508 44.043C111.281 43.8164 112.129 43.7031 113.051 43.7031C114.309 43.7031 115.406 43.9297 116.344 44.3828C117.281 44.8359 118.008 45.457 118.523 46.2461C119.047 47.0352 119.309 47.9375 119.309 48.9531H115.816C115.816 48.4531 115.711 48.0156 115.5 47.6406C115.297 47.2578 114.984 46.957 114.562 46.7383C114.148 46.5195 113.625 46.4102 112.992 46.4102C112.383 46.4102 111.875 46.5039 111.469 46.6914C111.062 46.8711 110.758 47.1172 110.555 47.4297C110.352 47.7344 110.25 48.0781 110.25 48.4609C110.25 48.75 110.32 49.0117 110.461 49.2461C110.609 49.4805 110.828 49.6992 111.117 49.9023C111.406 50.1055 111.762 50.2969 112.184 50.4766C112.605 50.6562 113.094 50.832 113.648 51.0039C114.578 51.2852 115.395 51.6016 116.098 51.9531C116.809 52.3047 117.402 52.6992 117.879 53.1367C118.355 53.5742 118.715 54.0703 118.957 54.625C119.199 55.1797 119.32 55.8086 119.32 56.5117C119.32 57.2539 119.176 57.918 118.887 58.5039C118.598 59.0898 118.18 59.5859 117.633 59.9922C117.086 60.3984 116.434 60.707 115.676 60.918C114.918 61.1289 114.07 61.2344 113.133 61.2344C112.289 61.2344 111.457 61.125 110.637 60.9062C109.816 60.6797 109.07 60.3398 108.398 59.8867C107.734 59.4336 107.203 58.8555 106.805 58.1523C106.406 57.4492 106.207 56.6172 106.207 55.6562H109.734C109.734 56.1875 109.816 56.6367 109.98 57.0039C110.145 57.3711 110.375 57.668 110.672 57.8945C110.977 58.1211 111.336 58.2852 111.75 58.3867C112.172 58.4883 112.633 58.5391 113.133 58.5391C113.742 58.5391 114.242 58.4531 114.633 58.2812C115.031 58.1094 115.324 57.8711 115.512 57.5664C115.707 57.2617 115.805 56.918 115.805 56.5352ZM124.793 43V61H121.418V43H124.793ZM124.312 54.2148H123.387C123.395 53.332 123.512 52.5195 123.738 51.7773C123.965 51.0273 124.289 50.3789 124.711 49.832C125.133 49.2773 125.637 48.8477 126.223 48.543C126.816 48.2383 127.473 48.0859 128.191 48.0859C128.816 48.0859 129.383 48.1758 129.891 48.3555C130.406 48.5273 130.848 48.8086 131.215 49.1992C131.59 49.582 131.879 50.0859 132.082 50.7109C132.285 51.3359 132.387 52.0938 132.387 52.9844V61H128.988V52.9609C128.988 52.3984 128.906 51.957 128.742 51.6367C128.586 51.3086 128.355 51.0781 128.051 50.9453C127.754 50.8047 127.387 50.7344 126.949 50.7344C126.465 50.7344 126.051 50.8242 125.707 51.0039C125.371 51.1836 125.102 51.4336 124.898 51.7539C124.695 52.0664 124.547 52.4336 124.453 52.8555C124.359 53.2773 124.312 53.7305 124.312 54.2148ZM141.797 58.1406V52.4922C141.797 52.0859 141.73 51.7383 141.598 51.4492C141.465 51.1523 141.258 50.9219 140.977 50.7578C140.703 50.5938 140.348 50.5117 139.91 50.5117C139.535 50.5117 139.211 50.5781 138.938 50.7109C138.664 50.8359 138.453 51.0195 138.305 51.2617C138.156 51.4961 138.082 51.7734 138.082 52.0938H134.707C134.707 51.5547 134.832 51.043 135.082 50.5586C135.332 50.0742 135.695 49.6484 136.172 49.2812C136.648 48.9062 137.215 48.6133 137.871 48.4023C138.535 48.1914 139.277 48.0859 140.098 48.0859C141.082 48.0859 141.957 48.25 142.723 48.5781C143.488 48.9062 144.09 49.3984 144.527 50.0547C144.973 50.7109 145.195 51.5312 145.195 52.5156V57.9414C145.195 58.6367 145.238 59.207 145.324 59.6523C145.41 60.0898 145.535 60.4727 145.699 60.8008V61H142.289C142.125 60.6562 142 60.2266 141.914 59.7109C141.836 59.1875 141.797 58.6641 141.797 58.1406ZM142.242 53.2773L142.266 55.1875H140.379C139.934 55.1875 139.547 55.2383 139.219 55.3398C138.891 55.4414 138.621 55.5859 138.41 55.7734C138.199 55.9531 138.043 56.1641 137.941 56.4062C137.848 56.6484 137.801 56.9141 137.801 57.2031C137.801 57.4922 137.867 57.7539 138 57.9883C138.133 58.2148 138.324 58.3945 138.574 58.5273C138.824 58.6523 139.117 58.7148 139.453 58.7148C139.961 58.7148 140.402 58.6133 140.777 58.4102C141.152 58.207 141.441 57.957 141.645 57.6602C141.855 57.3633 141.965 57.082 141.973 56.8164L142.863 58.2461C142.738 58.5664 142.566 58.8984 142.348 59.2422C142.137 59.5859 141.867 59.9102 141.539 60.2148C141.211 60.5117 140.816 60.7578 140.355 60.9531C139.895 61.1406 139.348 61.2344 138.715 61.2344C137.91 61.2344 137.18 61.0742 136.523 60.7539C135.875 60.4258 135.359 59.9766 134.977 59.4062C134.602 58.8281 134.414 58.1719 134.414 57.4375C134.414 56.7734 134.539 56.1836 134.789 55.668C135.039 55.1523 135.406 54.7188 135.891 54.3672C136.383 54.0078 136.996 53.7383 137.73 53.5586C138.465 53.3711 139.316 53.2773 140.285 53.2773H142.242ZM151.172 51.0859V61H147.797V48.3203H150.973L151.172 51.0859ZM154.992 48.2383L154.934 51.3672C154.77 51.3438 154.57 51.3242 154.336 51.3086C154.109 51.2852 153.902 51.2734 153.715 51.2734C153.238 51.2734 152.824 51.3359 152.473 51.4609C152.129 51.5781 151.84 51.7539 151.605 51.9883C151.379 52.2227 151.207 52.5078 151.09 52.8438C150.98 53.1797 150.918 53.5625 150.902 53.9922L150.223 53.7812C150.223 52.9609 150.305 52.207 150.469 51.5195C150.633 50.8242 150.871 50.2188 151.184 49.7031C151.504 49.1875 151.895 48.7891 152.355 48.5078C152.816 48.2266 153.344 48.0859 153.938 48.0859C154.125 48.0859 154.316 48.1016 154.512 48.1328C154.707 48.1562 154.867 48.1914 154.992 48.2383ZM162.188 61.2344C161.203 61.2344 160.32 61.0781 159.539 60.7656C158.758 60.4453 158.094 60.0039 157.547 59.4414C157.008 58.8789 156.594 58.2266 156.305 57.4844C156.016 56.7344 155.871 55.9375 155.871 55.0938V54.625C155.871 53.6641 156.008 52.7852 156.281 51.9883C156.555 51.1914 156.945 50.5 157.453 49.9141C157.969 49.3281 158.594 48.8789 159.328 48.5664C160.062 48.2461 160.891 48.0859 161.812 48.0859C162.711 48.0859 163.508 48.2344 164.203 48.5312C164.898 48.8281 165.48 49.25 165.949 49.7969C166.426 50.3438 166.785 51 167.027 51.7656C167.27 52.5234 167.391 53.3672 167.391 54.2969V55.7031H157.312V53.4531H164.074V53.1953C164.074 52.7266 163.988 52.3086 163.816 51.9414C163.652 51.5664 163.402 51.2695 163.066 51.0508C162.73 50.832 162.301 50.7227 161.777 50.7227C161.332 50.7227 160.949 50.8203 160.629 51.0156C160.309 51.2109 160.047 51.4844 159.844 51.8359C159.648 52.1875 159.5 52.6016 159.398 53.0781C159.305 53.5469 159.258 54.0625 159.258 54.625V55.0938C159.258 55.6016 159.328 56.0703 159.469 56.5C159.617 56.9297 159.824 57.3008 160.09 57.6133C160.363 57.9258 160.691 58.168 161.074 58.3398C161.465 58.5117 161.906 58.5977 162.398 58.5977C163.008 58.5977 163.574 58.4805 164.098 58.2461C164.629 58.0039 165.086 57.6406 165.469 57.1562L167.109 58.9375C166.844 59.3203 166.48 59.6875 166.02 60.0391C165.566 60.3906 165.02 60.6797 164.379 60.9062C163.738 61.125 163.008 61.2344 162.188 61.2344ZM176.168 54.918H171.82V52.1758H176.168C176.84 52.1758 177.387 52.0664 177.809 51.8477C178.23 51.6211 178.539 51.3086 178.734 50.9102C178.93 50.5117 179.027 50.0625 179.027 49.5625C179.027 49.0547 178.93 48.582 178.734 48.1445C178.539 47.707 178.23 47.3555 177.809 47.0898C177.387 46.8242 176.84 46.6914 176.168 46.6914H173.039V61H169.523V43.9375H176.168C177.504 43.9375 178.648 44.1797 179.602 44.6641C180.562 45.1406 181.297 45.8008 181.805 46.6445C182.312 47.4883 182.566 48.4531 182.566 49.5391C182.566 50.6406 182.312 51.5938 181.805 52.3984C181.297 53.2031 180.562 53.8242 179.602 54.2617C178.648 54.6992 177.504 54.918 176.168 54.918ZM188.156 51.0859V61H184.781V48.3203H187.957L188.156 51.0859ZM191.977 48.2383L191.918 51.3672C191.754 51.3438 191.555 51.3242 191.32 51.3086C191.094 51.2852 190.887 51.2734 190.699 51.2734C190.223 51.2734 189.809 51.3359 189.457 51.4609C189.113 51.5781 188.824 51.7539 188.59 51.9883C188.363 52.2227 188.191 52.5078 188.074 52.8438C187.965 53.1797 187.902 53.5625 187.887 53.9922L187.207 53.7812C187.207 52.9609 187.289 52.207 187.453 51.5195C187.617 50.8242 187.855 50.2188 188.168 49.7031C188.488 49.1875 188.879 48.7891 189.34 48.5078C189.801 48.2266 190.328 48.0859 190.922 48.0859C191.109 48.0859 191.301 48.1016 191.496 48.1328C191.691 48.1562 191.852 48.1914 191.977 48.2383ZM192.68 54.7891V54.543C192.68 53.6133 192.812 52.7578 193.078 51.9766C193.344 51.1875 193.73 50.5039 194.238 49.9258C194.746 49.3477 195.371 48.8984 196.113 48.5781C196.855 48.25 197.707 48.0859 198.668 48.0859C199.629 48.0859 200.484 48.25 201.234 48.5781C201.984 48.8984 202.613 49.3477 203.121 49.9258C203.637 50.5039 204.027 51.1875 204.293 51.9766C204.559 52.7578 204.691 53.6133 204.691 54.543V54.7891C204.691 55.7109 204.559 56.5664 204.293 57.3555C204.027 58.1367 203.637 58.8203 203.121 59.4062C202.613 59.9844 201.988 60.4336 201.246 60.7539C200.504 61.0742 199.652 61.2344 198.691 61.2344C197.73 61.2344 196.875 61.0742 196.125 60.7539C195.383 60.4336 194.754 59.9844 194.238 59.4062C193.73 58.8203 193.344 58.1367 193.078 57.3555C192.812 56.5664 192.68 55.7109 192.68 54.7891ZM196.055 54.543V54.7891C196.055 55.3203 196.102 55.8164 196.195 56.2773C196.289 56.7383 196.438 57.1445 196.641 57.4961C196.852 57.8398 197.125 58.1094 197.461 58.3047C197.797 58.5 198.207 58.5977 198.691 58.5977C199.16 58.5977 199.562 58.5 199.898 58.3047C200.234 58.1094 200.504 57.8398 200.707 57.4961C200.91 57.1445 201.059 56.7383 201.152 56.2773C201.254 55.8164 201.305 55.3203 201.305 54.7891V54.543C201.305 54.0273 201.254 53.543 201.152 53.0898C201.059 52.6289 200.906 52.2227 200.695 51.8711C200.492 51.5117 200.223 51.2305 199.887 51.0273C199.551 50.8242 199.145 50.7227 198.668 50.7227C198.191 50.7227 197.785 50.8242 197.449 51.0273C197.121 51.2305 196.852 51.5117 196.641 51.8711C196.438 52.2227 196.289 52.6289 196.195 53.0898C196.102 53.543 196.055 54.0273 196.055 54.543ZM210.141 50.9453V61H206.754V48.3203H209.93L210.141 50.9453ZM209.672 54.2148H208.734C208.734 53.332 208.84 52.5195 209.051 51.7773C209.27 51.0273 209.586 50.3789 210 49.832C210.422 49.2773 210.941 48.8477 211.559 48.543C212.176 48.2383 212.891 48.0859 213.703 48.0859C214.266 48.0859 214.781 48.1719 215.25 48.3438C215.719 48.5078 216.121 48.7695 216.457 49.1289C216.801 49.4805 217.066 49.9414 217.254 50.5117C217.441 51.0742 217.535 51.75 217.535 52.5391V61H214.16V52.9141C214.16 52.3359 214.082 51.8906 213.926 51.5781C213.77 51.2656 213.547 51.0469 213.258 50.9219C212.977 50.7969 212.637 50.7344 212.238 50.7344C211.801 50.7344 211.418 50.8242 211.09 51.0039C210.77 51.1836 210.504 51.4336 210.293 51.7539C210.082 52.0664 209.926 52.4336 209.824 52.8555C209.723 53.2773 209.672 53.7305 209.672 54.2148ZM217.219 53.8281L216.012 53.9805C216.012 53.1523 216.113 52.3828 216.316 51.6719C216.527 50.9609 216.836 50.3359 217.242 49.7969C217.656 49.2578 218.168 48.8398 218.777 48.543C219.387 48.2383 220.09 48.0859 220.887 48.0859C221.496 48.0859 222.051 48.1758 222.551 48.3555C223.051 48.5273 223.477 48.8047 223.828 49.1875C224.188 49.5625 224.461 50.0547 224.648 50.6641C224.844 51.2734 224.941 52.0195 224.941 52.9023V61H221.555V52.9023C221.555 52.3164 221.477 51.8711 221.32 51.5664C221.172 51.2539 220.953 51.0391 220.664 50.9219C220.383 50.7969 220.047 50.7344 219.656 50.7344C219.25 50.7344 218.895 50.8164 218.59 50.9805C218.285 51.1367 218.031 51.3555 217.828 51.6367C217.625 51.918 217.473 52.2461 217.371 52.6211C217.27 52.9883 217.219 53.3906 217.219 53.8281ZM230.93 50.7578V65.875H227.555V48.3203H230.684L230.93 50.7578ZM238.957 54.5195V54.7656C238.957 55.6875 238.848 56.543 238.629 57.332C238.418 58.1211 238.105 58.8086 237.691 59.3945C237.277 59.9727 236.762 60.4258 236.145 60.7539C235.535 61.0742 234.832 61.2344 234.035 61.2344C233.262 61.2344 232.59 61.0781 232.02 60.7656C231.449 60.4531 230.969 60.0156 230.578 59.4531C230.195 58.8828 229.887 58.2227 229.652 57.4727C229.418 56.7227 229.238 55.918 229.113 55.0586V54.4141C229.238 53.4922 229.418 52.6484 229.652 51.8828C229.887 51.1094 230.195 50.4414 230.578 49.8789C230.969 49.3086 231.445 48.8672 232.008 48.5547C232.578 48.2422 233.246 48.0859 234.012 48.0859C234.816 48.0859 235.523 48.2383 236.133 48.543C236.75 48.8477 237.266 49.2852 237.68 49.8555C238.102 50.4258 238.418 51.1055 238.629 51.8945C238.848 52.6836 238.957 53.5586 238.957 54.5195ZM235.57 54.7656V54.5195C235.57 53.9805 235.523 53.4844 235.43 53.0312C235.344 52.5703 235.203 52.168 235.008 51.8242C234.82 51.4805 234.57 51.2148 234.258 51.0273C233.953 50.832 233.582 50.7344 233.145 50.7344C232.684 50.7344 232.289 50.8086 231.961 50.957C231.641 51.1055 231.379 51.3203 231.176 51.6016C230.973 51.8828 230.82 52.2188 230.719 52.6094C230.617 53 230.555 53.4414 230.531 53.9336V55.5625C230.57 56.1406 230.68 56.6602 230.859 57.1211C231.039 57.5742 231.316 57.9336 231.691 58.1992C232.066 58.4648 232.559 58.5977 233.168 58.5977C233.613 58.5977 233.988 58.5 234.293 58.3047C234.598 58.1016 234.844 57.8242 235.031 57.4727C235.227 57.1211 235.363 56.7148 235.441 56.2539C235.527 55.793 235.57 55.2969 235.57 54.7656ZM247.266 48.3203V50.7109H239.883V48.3203H247.266ZM241.711 45.1914H245.086V57.1797C245.086 57.5469 245.133 57.8281 245.227 58.0234C245.328 58.2188 245.477 58.3555 245.672 58.4336C245.867 58.5039 246.113 58.5391 246.41 58.5391C246.621 58.5391 246.809 58.5312 246.973 58.5156C247.145 58.4922 247.289 58.4688 247.406 58.4453L247.418 60.9297C247.129 61.0234 246.816 61.0977 246.48 61.1523C246.145 61.207 245.773 61.2344 245.367 61.2344C244.625 61.2344 243.977 61.1133 243.422 60.8711C242.875 60.6211 242.453 60.2227 242.156 59.6758C241.859 59.1289 241.711 58.4102 241.711 57.5195V45.1914ZM256.043 57.4961C256.043 57.2539 255.973 57.0352 255.832 56.8398C255.691 56.6445 255.43 56.4648 255.047 56.3008C254.672 56.1289 254.129 55.9727 253.418 55.832C252.777 55.6914 252.18 55.5156 251.625 55.3047C251.078 55.0859 250.602 54.8242 250.195 54.5195C249.797 54.2148 249.484 53.8555 249.258 53.4414C249.031 53.0195 248.918 52.5391 248.918 52C248.918 51.4688 249.031 50.9688 249.258 50.5C249.492 50.0312 249.824 49.6172 250.254 49.2578C250.691 48.8906 251.223 48.6055 251.848 48.4023C252.48 48.1914 253.191 48.0859 253.98 48.0859C255.082 48.0859 256.027 48.2617 256.816 48.6133C257.613 48.9648 258.223 49.4492 258.645 50.0664C259.074 50.6758 259.289 51.3711 259.289 52.1523H255.914C255.914 51.8242 255.844 51.5312 255.703 51.2734C255.57 51.0078 255.359 50.8008 255.07 50.6523C254.789 50.4961 254.422 50.418 253.969 50.418C253.594 50.418 253.27 50.4844 252.996 50.6172C252.723 50.7422 252.512 50.9141 252.363 51.1328C252.223 51.3438 252.152 51.5781 252.152 51.8359C252.152 52.0312 252.191 52.207 252.27 52.3633C252.355 52.5117 252.492 52.6484 252.68 52.7734C252.867 52.8984 253.109 53.0156 253.406 53.125C253.711 53.2266 254.086 53.3203 254.531 53.4062C255.445 53.5938 256.262 53.8398 256.98 54.1445C257.699 54.4414 258.27 54.8477 258.691 55.3633C259.113 55.8711 259.324 56.5391 259.324 57.3672C259.324 57.9297 259.199 58.4453 258.949 58.9141C258.699 59.3828 258.34 59.793 257.871 60.1445C257.402 60.4883 256.84 60.7578 256.184 60.9531C255.535 61.1406 254.805 61.2344 253.992 61.2344C252.812 61.2344 251.812 61.0234 250.992 60.6016C250.18 60.1797 249.562 59.6445 249.141 58.9961C248.727 58.3398 248.52 57.668 248.52 56.9805H251.719C251.734 57.4414 251.852 57.8125 252.07 58.0938C252.297 58.375 252.582 58.5781 252.926 58.7031C253.277 58.8281 253.656 58.8906 254.062 58.8906C254.5 58.8906 254.863 58.832 255.152 58.7148C255.441 58.5898 255.66 58.4258 255.809 58.2227C255.965 58.0117 256.043 57.7695 256.043 57.4961Z" fill="#888888"/>
<path d="M109.219 107.422H100.734V101.07H109.219C110.375 101.07 111.312 100.875 112.031 100.484C112.75 100.094 113.273 99.5547 113.602 98.8672C113.945 98.1641 114.117 97.375 114.117 96.5C114.117 95.5625 113.945 94.6953 113.602 93.8984C113.273 93.1016 112.75 92.4609 112.031 91.9766C111.312 91.4766 110.375 91.2266 109.219 91.2266H103.828V119H95.6016V84.875H109.219C111.953 84.875 114.305 85.375 116.273 86.375C118.258 87.375 119.781 88.75 120.844 90.5C121.906 92.2344 122.438 94.2188 122.438 96.4531C122.438 98.6562 121.906 100.578 120.844 102.219C119.781 103.859 118.258 105.141 116.273 106.062C114.305 106.969 111.953 107.422 109.219 107.422ZM134.461 99.9219V119H126.562V93.6406H133.945L134.461 99.9219ZM141.961 93.4531L141.82 100.789C141.508 100.758 141.086 100.719 140.555 100.672C140.023 100.625 139.578 100.602 139.219 100.602C138.297 100.602 137.5 100.711 136.828 100.93C136.172 101.133 135.625 101.445 135.188 101.867C134.766 102.273 134.453 102.789 134.25 103.414C134.062 104.039 133.977 104.766 133.992 105.594L132.562 104.656C132.562 102.953 132.727 101.406 133.055 100.016C133.398 98.6094 133.883 97.3984 134.508 96.3828C135.133 95.3516 135.891 94.5625 136.781 94.0156C137.672 93.4531 138.672 93.1719 139.781 93.1719C140.172 93.1719 140.555 93.1953 140.93 93.2422C141.32 93.2891 141.664 93.3594 141.961 93.4531ZM142.852 106.578V106.086C142.852 104.227 143.117 102.516 143.648 100.953C144.18 99.375 144.961 98.0078 145.992 96.8516C147.023 95.6953 148.297 94.7969 149.812 94.1562C151.328 93.5 153.078 93.1719 155.062 93.1719C157.062 93.1719 158.82 93.5 160.336 94.1562C161.867 94.7969 163.148 95.6953 164.18 96.8516C165.211 98.0078 165.992 99.375 166.523 100.953C167.055 102.516 167.32 104.227 167.32 106.086V106.578C167.32 108.422 167.055 110.133 166.523 111.711C165.992 113.273 165.211 114.641 164.18 115.812C163.148 116.969 161.875 117.867 160.359 118.508C158.844 119.148 157.094 119.469 155.109 119.469C153.125 119.469 151.367 119.148 149.836 118.508C148.305 117.867 147.023 116.969 145.992 115.812C144.961 114.641 144.18 113.273 143.648 111.711C143.117 110.133 142.852 108.422 142.852 106.578ZM150.75 106.086V106.578C150.75 107.531 150.82 108.422 150.961 109.25C151.102 110.078 151.336 110.805 151.664 111.43C151.992 112.039 152.438 112.516 153 112.859C153.562 113.203 154.266 113.375 155.109 113.375C155.938 113.375 156.625 113.203 157.172 112.859C157.734 112.516 158.18 112.039 158.508 111.43C158.836 110.805 159.07 110.078 159.211 109.25C159.352 108.422 159.422 107.531 159.422 106.578V106.086C159.422 105.164 159.352 104.297 159.211 103.484C159.07 102.656 158.836 101.93 158.508 101.305C158.18 100.664 157.734 100.164 157.172 99.8047C156.609 99.4453 155.906 99.2656 155.062 99.2656C154.234 99.2656 153.539 99.4453 152.977 99.8047C152.43 100.164 151.992 100.664 151.664 101.305C151.336 101.93 151.102 102.656 150.961 103.484C150.82 104.297 150.75 105.164 150.75 106.086ZM184.195 93.6406V99.125H168.914V93.6406H184.195ZM172.125 87.3359H180.023V110.727C180.023 111.398 180.102 111.922 180.258 112.297C180.414 112.656 180.68 112.914 181.055 113.07C181.445 113.211 181.961 113.281 182.602 113.281C183.055 113.281 183.43 113.273 183.727 113.258C184.023 113.227 184.305 113.188 184.57 113.141V118.789C183.898 119.008 183.195 119.172 182.461 119.281C181.727 119.406 180.945 119.469 180.117 119.469C178.43 119.469 176.984 119.203 175.781 118.672C174.594 118.141 173.688 117.305 173.062 116.164C172.438 115.023 172.125 113.539 172.125 111.711V87.3359ZM185.648 106.578V106.086C185.648 104.227 185.914 102.516 186.445 100.953C186.977 99.375 187.758 98.0078 188.789 96.8516C189.82 95.6953 191.094 94.7969 192.609 94.1562C194.125 93.5 195.875 93.1719 197.859 93.1719C199.859 93.1719 201.617 93.5 203.133 94.1562C204.664 94.7969 205.945 95.6953 206.977 96.8516C208.008 98.0078 208.789 99.375 209.32 100.953C209.852 102.516 210.117 104.227 210.117 106.086V106.578C210.117 108.422 209.852 110.133 209.32 111.711C208.789 113.273 208.008 114.641 206.977 115.812C205.945 116.969 204.672 117.867 203.156 118.508C201.641 119.148 199.891 119.469 197.906 119.469C195.922 119.469 194.164 119.148 192.633 118.508C191.102 117.867 189.82 116.969 188.789 115.812C187.758 114.641 186.977 113.273 186.445 111.711C185.914 110.133 185.648 108.422 185.648 106.578ZM193.547 106.086V106.578C193.547 107.531 193.617 108.422 193.758 109.25C193.898 110.078 194.133 110.805 194.461 111.43C194.789 112.039 195.234 112.516 195.797 112.859C196.359 113.203 197.062 113.375 197.906 113.375C198.734 113.375 199.422 113.203 199.969 112.859C200.531 112.516 200.977 112.039 201.305 111.43C201.633 110.805 201.867 110.078 202.008 109.25C202.148 108.422 202.219 107.531 202.219 106.578V106.086C202.219 105.164 202.148 104.297 202.008 103.484C201.867 102.656 201.633 101.93 201.305 101.305C200.977 100.664 200.531 100.164 199.969 99.8047C199.406 99.4453 198.703 99.2656 197.859 99.2656C197.031 99.2656 196.336 99.4453 195.773 99.8047C195.227 100.164 194.789 100.664 194.461 101.305C194.133 101.93 193.898 102.656 193.758 103.484C193.617 104.297 193.547 105.164 193.547 106.086ZM226.992 93.6406V99.125H211.711V93.6406H226.992ZM214.922 87.3359H222.82V110.727C222.82 111.398 222.898 111.922 223.055 112.297C223.211 112.656 223.477 112.914 223.852 113.07C224.242 113.211 224.758 113.281 225.398 113.281C225.852 113.281 226.227 113.273 226.523 113.258C226.82 113.227 227.102 113.188 227.367 113.141V118.789C226.695 119.008 225.992 119.172 225.258 119.281C224.523 119.406 223.742 119.469 222.914 119.469C221.227 119.469 219.781 119.203 218.578 118.672C217.391 118.141 216.484 117.305 215.859 116.164C215.234 115.023 214.922 113.539 214.922 111.711V87.3359ZM237.914 116.023L244.477 93.6406H252.961L242.766 122.773C242.547 123.414 242.258 124.102 241.898 124.836C241.539 125.586 241.047 126.297 240.422 126.969C239.797 127.641 238.992 128.188 238.008 128.609C237.039 129.031 235.836 129.242 234.398 129.242C233.633 129.242 233.07 129.203 232.711 129.125C232.367 129.062 231.836 128.945 231.117 128.773V123.125C231.32 123.125 231.492 123.125 231.633 123.125C231.789 123.125 231.961 123.125 232.148 123.125C232.992 123.125 233.664 123.039 234.164 122.867C234.68 122.695 235.07 122.445 235.336 122.117C235.617 121.789 235.836 121.391 235.992 120.922L237.914 116.023ZM236.25 93.6406L241.242 111.383L242.109 119.75H236.812L227.789 93.6406H236.25ZM262.992 98.5156V128.75H255.094V93.6406H262.453L262.992 98.5156ZM278.555 106.016V106.508C278.555 108.352 278.344 110.062 277.922 111.641C277.5 113.219 276.875 114.594 276.047 115.766C275.219 116.938 274.188 117.852 272.953 118.508C271.734 119.148 270.32 119.469 268.711 119.469C267.195 119.469 265.891 119.133 264.797 118.461C263.703 117.789 262.789 116.859 262.055 115.672C261.32 114.484 260.727 113.125 260.273 111.594C259.82 110.062 259.461 108.445 259.195 106.742V106.109C259.461 104.281 259.82 102.586 260.273 101.023C260.727 99.4453 261.32 98.0703 262.055 96.8984C262.789 95.7266 263.695 94.8125 264.773 94.1562C265.867 93.5 267.172 93.1719 268.688 93.1719C270.297 93.1719 271.711 93.4766 272.93 94.0859C274.164 94.6953 275.195 95.5703 276.023 96.7109C276.867 97.8359 277.5 99.1875 277.922 100.766C278.344 102.344 278.555 104.094 278.555 106.016ZM270.656 106.508V106.016C270.656 105.031 270.586 104.133 270.445 103.32C270.305 102.492 270.078 101.773 269.766 101.164C269.469 100.555 269.07 100.086 268.57 99.7578C268.07 99.4297 267.453 99.2656 266.719 99.2656C265.875 99.2656 265.164 99.3984 264.586 99.6641C264.023 99.9141 263.57 100.305 263.227 100.836C262.898 101.352 262.664 102 262.523 102.781C262.398 103.547 262.344 104.445 262.359 105.477V107.398C262.328 108.586 262.445 109.633 262.711 110.539C262.977 111.43 263.438 112.125 264.094 112.625C264.75 113.125 265.641 113.375 266.766 113.375C267.516 113.375 268.141 113.203 268.641 112.859C269.141 112.5 269.539 112.008 269.836 111.383C270.133 110.742 270.344 110.008 270.469 109.18C270.594 108.352 270.656 107.461 270.656 106.508ZM290.414 93.6406V119H282.492V93.6406H290.414ZM282.023 87.1016C282.023 85.9766 282.43 85.0547 283.242 84.3359C284.055 83.6172 285.109 83.2578 286.406 83.2578C287.703 83.2578 288.758 83.6172 289.57 84.3359C290.383 85.0547 290.789 85.9766 290.789 87.1016C290.789 88.2266 290.383 89.1484 289.57 89.8672C288.758 90.5859 287.703 90.9453 286.406 90.9453C285.109 90.9453 284.055 90.5859 283.242 89.8672C282.43 89.1484 282.023 88.2266 282.023 87.1016ZM303.047 99.0547V119H295.148V93.6406H302.555L303.047 99.0547ZM302.109 105.453L300.258 105.5C300.258 103.562 300.492 101.836 300.961 100.32C301.43 98.7891 302.094 97.4922 302.953 96.4297C303.812 95.3672 304.836 94.5625 306.023 94.0156C307.227 93.4531 308.562 93.1719 310.031 93.1719C311.203 93.1719 312.273 93.3438 313.242 93.6875C314.227 94.0312 315.07 94.5859 315.773 95.3516C316.492 96.1172 317.039 97.1328 317.414 98.3984C317.805 99.6484 318 101.195 318 103.039V119H310.055V103.016C310.055 102 309.914 101.227 309.633 100.695C309.352 100.148 308.945 99.7734 308.414 99.5703C307.883 99.3672 307.234 99.2656 306.469 99.2656C305.656 99.2656 304.969 99.4219 304.406 99.7344C303.844 100.047 303.391 100.484 303.047 101.047C302.719 101.594 302.477 102.242 302.32 102.992C302.18 103.742 302.109 104.562 302.109 105.453ZM338.32 93.6406H345.492V118.016C345.492 120.359 344.953 122.344 343.875 123.969C342.797 125.609 341.289 126.852 339.352 127.695C337.43 128.555 335.18 128.984 332.602 128.984C331.461 128.984 330.297 128.836 329.109 128.539C327.922 128.258 326.812 127.836 325.781 127.273C324.75 126.711 323.883 126.016 323.18 125.188L326.484 120.547C327.125 121.266 327.93 121.875 328.898 122.375C329.867 122.891 331.008 123.148 332.32 123.148C333.461 123.148 334.414 122.945 335.18 122.539C335.961 122.133 336.555 121.539 336.961 120.758C337.367 119.992 337.57 119.062 337.57 117.969V99.6406L338.32 93.6406ZM321.469 106.625V106.133C321.469 104.211 321.703 102.461 322.172 100.883C322.656 99.2891 323.344 97.9219 324.234 96.7812C325.141 95.625 326.234 94.7344 327.516 94.1094C328.797 93.4844 330.242 93.1719 331.852 93.1719C333.586 93.1719 335.008 93.5078 336.117 94.1797C337.242 94.8359 338.141 95.7578 338.812 96.9453C339.5 98.1328 340.031 99.5234 340.406 101.117C340.797 102.695 341.125 104.398 341.391 106.227V106.812C341.125 108.531 340.758 110.156 340.289 111.688C339.836 113.203 339.242 114.547 338.508 115.719C337.773 116.891 336.852 117.812 335.742 118.484C334.648 119.141 333.336 119.469 331.805 119.469C330.211 119.469 328.773 119.148 327.492 118.508C326.227 117.867 325.141 116.969 324.234 115.812C323.344 114.656 322.656 113.297 322.172 111.734C321.703 110.172 321.469 108.469 321.469 106.625ZM329.367 106.133V106.625C329.367 107.578 329.453 108.461 329.625 109.273C329.812 110.086 330.094 110.805 330.469 111.43C330.844 112.039 331.305 112.516 331.852 112.859C332.414 113.203 333.07 113.375 333.82 113.375C334.961 113.375 335.883 113.133 336.586 112.648C337.289 112.164 337.797 111.477 338.109 110.586C338.422 109.695 338.555 108.648 338.508 107.445V105.594C338.539 104.562 338.469 103.656 338.297 102.875C338.125 102.078 337.852 101.414 337.477 100.883C337.117 100.352 336.633 99.9531 336.023 99.6875C335.43 99.4062 334.711 99.2656 333.867 99.2656C333.133 99.2656 332.484 99.4375 331.922 99.7812C331.359 100.125 330.891 100.609 330.516 101.234C330.141 101.844 329.852 102.57 329.648 103.414C329.461 104.242 329.367 105.148 329.367 106.133Z" fill="black"/>
<path d="M1134 0H1348C1356.28 0 1363 6.71573 1363 15V148C1363 156.284 1356.28 163 1348 163H1134V0Z" fill="#EA580C"/>
<path fill-rule="evenodd" clip-rule="evenodd" d="M1202.75 46.5018C1202.75 45.3973 1203.65 44.5018 1204.75 44.5018H1292.25C1293.35 44.5018 1294.25 45.3973 1294.25 46.5018V116.498C1294.25 117.603 1293.35 118.498 1292.25 118.498H1204.75C1203.65 118.498 1202.75 117.603 1202.75 116.498V46.5018ZM1206.75 48.5018V52.9963H1290.25V48.5018H1206.75ZM1290.25 56.9963H1235.19V114.498H1290.25V56.9963ZM1231.19 114.498V56.9963H1206.75V114.498H1231.19Z" fill="white"/>
<path fill-rule="evenodd" clip-rule="evenodd" d="M1209.72 62.3022C1209.72 61.1976 1210.62 60.3022 1211.72 60.3022H1225.72C1226.83 60.3022 1227.72 61.1976 1227.72 62.3022V81.6974C1227.72 82.802 1226.83 83.6974 1225.72 83.6974H1211.72C1210.62 83.6974 1209.72 82.802 1209.72 81.6974V62.3022ZM1213.72 64.3022V79.6974H1223.72V64.3022H1213.72ZM1239.33 63.1982C1239.33 62.0936 1240.22 61.1982 1241.33 61.1982H1284.25C1285.36 61.1982 1286.25 62.0936 1286.25 63.1982V109.407C1286.25 110.511 1285.36 111.407 1284.25 111.407H1241.33C1240.22 111.407 1239.33 110.511 1239.33 109.407V63.1982ZM1243.33 65.1982V107.407H1282.25V65.1982H1243.33ZM1209.56 93.4381C1209.56 92.3335 1210.46 91.4381 1211.56 91.4381H1220.48C1221.59 91.4381 1222.48 92.3335 1222.48 93.4381C1222.48 94.5427 1221.59 95.4381 1220.48 95.4381H1211.56C1210.46 95.4381 1209.56 94.5427 1209.56 93.4381ZM1209.56 100.438C1209.56 99.3335 1210.46 98.4381 1211.56 98.4381H1226.1C1227.21 98.4381 1228.1 99.3335 1228.1 100.438C1228.1 101.543 1227.21 102.438 1226.1 102.438H1211.56C1210.46 102.438 1209.56 101.543 1209.56 100.438ZM1209.56 107.438C1209.56 106.333 1210.46 105.438 1211.56 105.438H1220.48C1221.59 105.438 1222.48 106.333 1222.48 107.438C1222.48 108.543 1221.59 109.438 1220.48 109.438H1211.56C1210.46 109.438 1209.56 108.543 1209.56 107.438Z" fill="white"/>
</svg>
