<svg width="1363" height="163" viewBox="0 0 1363 163" fill="none" xmlns="http://www.w3.org/2000/svg">
<path d="M0 15C0 6.71573 6.71573 0 15 0H37V163H15C6.71573 163 0 156.284 0 148V15Z" fill="#111111"/>
<rect width="1097" height="163" transform="translate(37)" fill="#F0F0F0"/>
<path d="M101.906 53.9219L94.3945 51.2383V48.0859L104.602 52.375V54.6367L101.906 53.9219ZM94.3945 56.1719L101.918 53.4297L104.602 52.7852V55.0352L94.3945 59.3242V56.1719ZM115.805 56.5352C115.805 56.2305 115.758 55.957 115.664 55.7148C115.578 55.4648 115.414 55.2383 115.172 55.0352C114.93 54.8242 114.59 54.6172 114.152 54.4141C113.715 54.2109 113.148 54 112.453 53.7812C111.68 53.5312 110.945 53.25 110.25 52.9375C109.562 52.625 108.953 52.2617 108.422 51.8477C107.898 51.4258 107.484 50.9375 107.18 50.3828C106.883 49.8281 106.734 49.1836 106.734 48.4492C106.734 47.7383 106.891 47.0938 107.203 46.5156C107.516 45.9297 107.953 45.4297 108.516 45.0156C109.078 44.5938 109.742 44.2695 110.508 44.043C111.281 43.8164 112.129 43.7031 113.051 43.7031C114.309 43.7031 115.406 43.9297 116.344 44.3828C117.281 44.8359 118.008 45.457 118.523 46.2461C119.047 47.0352 119.309 47.9375 119.309 48.9531H115.816C115.816 48.4531 115.711 48.0156 115.5 47.6406C115.297 47.2578 114.984 46.957 114.562 46.7383C114.148 46.5195 113.625 46.4102 112.992 46.4102C112.383 46.4102 111.875 46.5039 111.469 46.6914C111.062 46.8711 110.758 47.1172 110.555 47.4297C110.352 47.7344 110.25 48.0781 110.25 48.4609C110.25 48.75 110.32 49.0117 110.461 49.2461C110.609 49.4805 110.828 49.6992 111.117 49.9023C111.406 50.1055 111.762 50.2969 112.184 50.4766C112.605 50.6562 113.094 50.832 113.648 51.0039C114.578 51.2852 115.395 51.6016 116.098 51.9531C116.809 52.3047 117.402 52.6992 117.879 53.1367C118.355 53.5742 118.715 54.0703 118.957 54.625C119.199 55.1797 119.32 55.8086 119.32 56.5117C119.32 57.2539 119.176 57.918 118.887 58.5039C118.598 59.0898 118.18 59.5859 117.633 59.9922C117.086 60.3984 116.434 60.707 115.676 60.918C114.918 61.1289 114.07 61.2344 113.133 61.2344C112.289 61.2344 111.457 61.125 110.637 60.9062C109.816 60.6797 109.07 60.3398 108.398 59.8867C107.734 59.4336 107.203 58.8555 106.805 58.1523C106.406 57.4492 106.207 56.6172 106.207 55.6562H109.734C109.734 56.1875 109.816 56.6367 109.98 57.0039C110.145 57.3711 110.375 57.668 110.672 57.8945C110.977 58.1211 111.336 58.2852 111.75 58.3867C112.172 58.4883 112.633 58.5391 113.133 58.5391C113.742 58.5391 114.242 58.4531 114.633 58.2812C115.031 58.1094 115.324 57.8711 115.512 57.5664C115.707 57.2617 115.805 56.918 115.805 56.5352ZM124.793 43V61H121.418V43H124.793ZM124.312 54.2148H123.387C123.395 53.332 123.512 52.5195 123.738 51.7773C123.965 51.0273 124.289 50.3789 124.711 49.832C125.133 49.2773 125.637 48.8477 126.223 48.543C126.816 48.2383 127.473 48.0859 128.191 48.0859C128.816 48.0859 129.383 48.1758 129.891 48.3555C130.406 48.5273 130.848 48.8086 131.215 49.1992C131.59 49.582 131.879 50.0859 132.082 50.7109C132.285 51.3359 132.387 52.0938 132.387 52.9844V61H128.988V52.9609C128.988 52.3984 128.906 51.957 128.742 51.6367C128.586 51.3086 128.355 51.0781 128.051 50.9453C127.754 50.8047 127.387 50.7344 126.949 50.7344C126.465 50.7344 126.051 50.8242 125.707 51.0039C125.371 51.1836 125.102 51.4336 124.898 51.7539C124.695 52.0664 124.547 52.4336 124.453 52.8555C124.359 53.2773 124.312 53.7305 124.312 54.2148ZM141.797 58.1406V52.4922C141.797 52.0859 141.73 51.7383 141.598 51.4492C141.465 51.1523 141.258 50.9219 140.977 50.7578C140.703 50.5938 140.348 50.5117 139.91 50.5117C139.535 50.5117 139.211 50.5781 138.938 50.7109C138.664 50.8359 138.453 51.0195 138.305 51.2617C138.156 51.4961 138.082 51.7734 138.082 52.0938H134.707C134.707 51.5547 134.832 51.043 135.082 50.5586C135.332 50.0742 135.695 49.6484 136.172 49.2812C136.648 48.9062 137.215 48.6133 137.871 48.4023C138.535 48.1914 139.277 48.0859 140.098 48.0859C141.082 48.0859 141.957 48.25 142.723 48.5781C143.488 48.9062 144.09 49.3984 144.527 50.0547C144.973 50.7109 145.195 51.5312 145.195 52.5156V57.9414C145.195 58.6367 145.238 59.207 145.324 59.6523C145.41 60.0898 145.535 60.4727 145.699 60.8008V61H142.289C142.125 60.6562 142 60.2266 141.914 59.7109C141.836 59.1875 141.797 58.6641 141.797 58.1406ZM142.242 53.2773L142.266 55.1875H140.379C139.934 55.1875 139.547 55.2383 139.219 55.3398C138.891 55.4414 138.621 55.5859 138.41 55.7734C138.199 55.9531 138.043 56.1641 137.941 56.4062C137.848 56.6484 137.801 56.9141 137.801 57.2031C137.801 57.4922 137.867 57.7539 138 57.9883C138.133 58.2148 138.324 58.3945 138.574 58.5273C138.824 58.6523 139.117 58.7148 139.453 58.7148C139.961 58.7148 140.402 58.6133 140.777 58.4102C141.152 58.207 141.441 57.957 141.645 57.6602C141.855 57.3633 141.965 57.082 141.973 56.8164L142.863 58.2461C142.738 58.5664 142.566 58.8984 142.348 59.2422C142.137 59.5859 141.867 59.9102 141.539 60.2148C141.211 60.5117 140.816 60.7578 140.355 60.9531C139.895 61.1406 139.348 61.2344 138.715 61.2344C137.91 61.2344 137.18 61.0742 136.523 60.7539C135.875 60.4258 135.359 59.9766 134.977 59.4062C134.602 58.8281 134.414 58.1719 134.414 57.4375C134.414 56.7734 134.539 56.1836 134.789 55.668C135.039 55.1523 135.406 54.7188 135.891 54.3672C136.383 54.0078 136.996 53.7383 137.73 53.5586C138.465 53.3711 139.316 53.2773 140.285 53.2773H142.242ZM151.172 51.0859V61H147.797V48.3203H150.973L151.172 51.0859ZM154.992 48.2383L154.934 51.3672C154.77 51.3438 154.57 51.3242 154.336 51.3086C154.109 51.2852 153.902 51.2734 153.715 51.2734C153.238 51.2734 152.824 51.3359 152.473 51.4609C152.129 51.5781 151.84 51.7539 151.605 51.9883C151.379 52.2227 151.207 52.5078 151.09 52.8438C150.98 53.1797 150.918 53.5625 150.902 53.9922L150.223 53.7812C150.223 52.9609 150.305 52.207 150.469 51.5195C150.633 50.8242 150.871 50.2188 151.184 49.7031C151.504 49.1875 151.895 48.7891 152.355 48.5078C152.816 48.2266 153.344 48.0859 153.938 48.0859C154.125 48.0859 154.316 48.1016 154.512 48.1328C154.707 48.1562 154.867 48.1914 154.992 48.2383ZM162.188 61.2344C161.203 61.2344 160.32 61.0781 159.539 60.7656C158.758 60.4453 158.094 60.0039 157.547 59.4414C157.008 58.8789 156.594 58.2266 156.305 57.4844C156.016 56.7344 155.871 55.9375 155.871 55.0938V54.625C155.871 53.6641 156.008 52.7852 156.281 51.9883C156.555 51.1914 156.945 50.5 157.453 49.9141C157.969 49.3281 158.594 48.8789 159.328 48.5664C160.062 48.2461 160.891 48.0859 161.812 48.0859C162.711 48.0859 163.508 48.2344 164.203 48.5312C164.898 48.8281 165.48 49.25 165.949 49.7969C166.426 50.3438 166.785 51 167.027 51.7656C167.27 52.5234 167.391 53.3672 167.391 54.2969V55.7031H157.312V53.4531H164.074V53.1953C164.074 52.7266 163.988 52.3086 163.816 51.9414C163.652 51.5664 163.402 51.2695 163.066 51.0508C162.73 50.832 162.301 50.7227 161.777 50.7227C161.332 50.7227 160.949 50.8203 160.629 51.0156C160.309 51.2109 160.047 51.4844 159.844 51.8359C159.648 52.1875 159.5 52.6016 159.398 53.0781C159.305 53.5469 159.258 54.0625 159.258 54.625V55.0938C159.258 55.6016 159.328 56.0703 159.469 56.5C159.617 56.9297 159.824 57.3008 160.09 57.6133C160.363 57.9258 160.691 58.168 161.074 58.3398C161.465 58.5117 161.906 58.5977 162.398 58.5977C163.008 58.5977 163.574 58.4805 164.098 58.2461C164.629 58.0039 165.086 57.6406 165.469 57.1562L167.109 58.9375C166.844 59.3203 166.48 59.6875 166.02 60.0391C165.566 60.3906 165.02 60.6797 164.379 60.9062C163.738 61.125 163.008 61.2344 162.188 61.2344ZM176.168 54.918H171.82V52.1758H176.168C176.84 52.1758 177.387 52.0664 177.809 51.8477C178.23 51.6211 178.539 51.3086 178.734 50.9102C178.93 50.5117 179.027 50.0625 179.027 49.5625C179.027 49.0547 178.93 48.582 178.734 48.1445C178.539 47.707 178.23 47.3555 177.809 47.0898C177.387 46.8242 176.84 46.6914 176.168 46.6914H173.039V61H169.523V43.9375H176.168C177.504 43.9375 178.648 44.1797 179.602 44.6641C180.562 45.1406 181.297 45.8008 181.805 46.6445C182.312 47.4883 182.566 48.4531 182.566 49.5391C182.566 50.6406 182.312 51.5938 181.805 52.3984C181.297 53.2031 180.562 53.8242 179.602 54.2617C178.648 54.6992 177.504 54.918 176.168 54.918ZM188.156 51.0859V61H184.781V48.3203H187.957L188.156 51.0859ZM191.977 48.2383L191.918 51.3672C191.754 51.3438 191.555 51.3242 191.32 51.3086C191.094 51.2852 190.887 51.2734 190.699 51.2734C190.223 51.2734 189.809 51.3359 189.457 51.4609C189.113 51.5781 188.824 51.7539 188.59 51.9883C188.363 52.2227 188.191 52.5078 188.074 52.8438C187.965 53.1797 187.902 53.5625 187.887 53.9922L187.207 53.7812C187.207 52.9609 187.289 52.207 187.453 51.5195C187.617 50.8242 187.855 50.2188 188.168 49.7031C188.488 49.1875 188.879 48.7891 189.34 48.5078C189.801 48.2266 190.328 48.0859 190.922 48.0859C191.109 48.0859 191.301 48.1016 191.496 48.1328C191.691 48.1562 191.852 48.1914 191.977 48.2383ZM192.68 54.7891V54.543C192.68 53.6133 192.812 52.7578 193.078 51.9766C193.344 51.1875 193.73 50.5039 194.238 49.9258C194.746 49.3477 195.371 48.8984 196.113 48.5781C196.855 48.25 197.707 48.0859 198.668 48.0859C199.629 48.0859 200.484 48.25 201.234 48.5781C201.984 48.8984 202.613 49.3477 203.121 49.9258C203.637 50.5039 204.027 51.1875 204.293 51.9766C204.559 52.7578 204.691 53.6133 204.691 54.543V54.7891C204.691 55.7109 204.559 56.5664 204.293 57.3555C204.027 58.1367 203.637 58.8203 203.121 59.4062C202.613 59.9844 201.988 60.4336 201.246 60.7539C200.504 61.0742 199.652 61.2344 198.691 61.2344C197.73 61.2344 196.875 61.0742 196.125 60.7539C195.383 60.4336 194.754 59.9844 194.238 59.4062C193.73 58.8203 193.344 58.1367 193.078 57.3555C192.812 56.5664 192.68 55.7109 192.68 54.7891ZM196.055 54.543V54.7891C196.055 55.3203 196.102 55.8164 196.195 56.2773C196.289 56.7383 196.438 57.1445 196.641 57.4961C196.852 57.8398 197.125 58.1094 197.461 58.3047C197.797 58.5 198.207 58.5977 198.691 58.5977C199.16 58.5977 199.562 58.5 199.898 58.3047C200.234 58.1094 200.504 57.8398 200.707 57.4961C200.91 57.1445 201.059 56.7383 201.152 56.2773C201.254 55.8164 201.305 55.3203 201.305 54.7891V54.543C201.305 54.0273 201.254 53.543 201.152 53.0898C201.059 52.6289 200.906 52.2227 200.695 51.8711C200.492 51.5117 200.223 51.2305 199.887 51.0273C199.551 50.8242 199.145 50.7227 198.668 50.7227C198.191 50.7227 197.785 50.8242 197.449 51.0273C197.121 51.2305 196.852 51.5117 196.641 51.8711C196.438 52.2227 196.289 52.6289 196.195 53.0898C196.102 53.543 196.055 54.0273 196.055 54.543ZM210.141 50.9453V61H206.754V48.3203H209.93L210.141 50.9453ZM209.672 54.2148H208.734C208.734 53.332 208.84 52.5195 209.051 51.7773C209.27 51.0273 209.586 50.3789 210 49.832C210.422 49.2773 210.941 48.8477 211.559 48.543C212.176 48.2383 212.891 48.0859 213.703 48.0859C214.266 48.0859 214.781 48.1719 215.25 48.3438C215.719 48.5078 216.121 48.7695 216.457 49.1289C216.801 49.4805 217.066 49.9414 217.254 50.5117C217.441 51.0742 217.535 51.75 217.535 52.5391V61H214.16V52.9141C214.16 52.3359 214.082 51.8906 213.926 51.5781C213.77 51.2656 213.547 51.0469 213.258 50.9219C212.977 50.7969 212.637 50.7344 212.238 50.7344C211.801 50.7344 211.418 50.8242 211.09 51.0039C210.77 51.1836 210.504 51.4336 210.293 51.7539C210.082 52.0664 209.926 52.4336 209.824 52.8555C209.723 53.2773 209.672 53.7305 209.672 54.2148ZM217.219 53.8281L216.012 53.9805C216.012 53.1523 216.113 52.3828 216.316 51.6719C216.527 50.9609 216.836 50.3359 217.242 49.7969C217.656 49.2578 218.168 48.8398 218.777 48.543C219.387 48.2383 220.09 48.0859 220.887 48.0859C221.496 48.0859 222.051 48.1758 222.551 48.3555C223.051 48.5273 223.477 48.8047 223.828 49.1875C224.188 49.5625 224.461 50.0547 224.648 50.6641C224.844 51.2734 224.941 52.0195 224.941 52.9023V61H221.555V52.9023C221.555 52.3164 221.477 51.8711 221.32 51.5664C221.172 51.2539 220.953 51.0391 220.664 50.9219C220.383 50.7969 220.047 50.7344 219.656 50.7344C219.25 50.7344 218.895 50.8164 218.59 50.9805C218.285 51.1367 218.031 51.3555 217.828 51.6367C217.625 51.918 217.473 52.2461 217.371 52.6211C217.27 52.9883 217.219 53.3906 217.219 53.8281ZM230.93 50.7578V65.875H227.555V48.3203H230.684L230.93 50.7578ZM238.957 54.5195V54.7656C238.957 55.6875 238.848 56.543 238.629 57.332C238.418 58.1211 238.105 58.8086 237.691 59.3945C237.277 59.9727 236.762 60.4258 236.145 60.7539C235.535 61.0742 234.832 61.2344 234.035 61.2344C233.262 61.2344 232.59 61.0781 232.02 60.7656C231.449 60.4531 230.969 60.0156 230.578 59.4531C230.195 58.8828 229.887 58.2227 229.652 57.4727C229.418 56.7227 229.238 55.918 229.113 55.0586V54.4141C229.238 53.4922 229.418 52.6484 229.652 51.8828C229.887 51.1094 230.195 50.4414 230.578 49.8789C230.969 49.3086 231.445 48.8672 232.008 48.5547C232.578 48.2422 233.246 48.0859 234.012 48.0859C234.816 48.0859 235.523 48.2383 236.133 48.543C236.75 48.8477 237.266 49.2852 237.68 49.8555C238.102 50.4258 238.418 51.1055 238.629 51.8945C238.848 52.6836 238.957 53.5586 238.957 54.5195ZM235.57 54.7656V54.5195C235.57 53.9805 235.523 53.4844 235.43 53.0312C235.344 52.5703 235.203 52.168 235.008 51.8242C234.82 51.4805 234.57 51.2148 234.258 51.0273C233.953 50.832 233.582 50.7344 233.145 50.7344C232.684 50.7344 232.289 50.8086 231.961 50.957C231.641 51.1055 231.379 51.3203 231.176 51.6016C230.973 51.8828 230.82 52.2188 230.719 52.6094C230.617 53 230.555 53.4414 230.531 53.9336V55.5625C230.57 56.1406 230.68 56.6602 230.859 57.1211C231.039 57.5742 231.316 57.9336 231.691 58.1992C232.066 58.4648 232.559 58.5977 233.168 58.5977C233.613 58.5977 233.988 58.5 234.293 58.3047C234.598 58.1016 234.844 57.8242 235.031 57.4727C235.227 57.1211 235.363 56.7148 235.441 56.2539C235.527 55.793 235.57 55.2969 235.57 54.7656ZM247.266 48.3203V50.7109H239.883V48.3203H247.266ZM241.711 45.1914H245.086V57.1797C245.086 57.5469 245.133 57.8281 245.227 58.0234C245.328 58.2188 245.477 58.3555 245.672 58.4336C245.867 58.5039 246.113 58.5391 246.41 58.5391C246.621 58.5391 246.809 58.5312 246.973 58.5156C247.145 58.4922 247.289 58.4688 247.406 58.4453L247.418 60.9297C247.129 61.0234 246.816 61.0977 246.48 61.1523C246.145 61.207 245.773 61.2344 245.367 61.2344C244.625 61.2344 243.977 61.1133 243.422 60.8711C242.875 60.6211 242.453 60.2227 242.156 59.6758C241.859 59.1289 241.711 58.4102 241.711 57.5195V45.1914ZM256.043 57.4961C256.043 57.2539 255.973 57.0352 255.832 56.8398C255.691 56.6445 255.43 56.4648 255.047 56.3008C254.672 56.1289 254.129 55.9727 253.418 55.832C252.777 55.6914 252.18 55.5156 251.625 55.3047C251.078 55.0859 250.602 54.8242 250.195 54.5195C249.797 54.2148 249.484 53.8555 249.258 53.4414C249.031 53.0195 248.918 52.5391 248.918 52C248.918 51.4688 249.031 50.9688 249.258 50.5C249.492 50.0312 249.824 49.6172 250.254 49.2578C250.691 48.8906 251.223 48.6055 251.848 48.4023C252.48 48.1914 253.191 48.0859 253.98 48.0859C255.082 48.0859 256.027 48.2617 256.816 48.6133C257.613 48.9648 258.223 49.4492 258.645 50.0664C259.074 50.6758 259.289 51.3711 259.289 52.1523H255.914C255.914 51.8242 255.844 51.5312 255.703 51.2734C255.57 51.0078 255.359 50.8008 255.07 50.6523C254.789 50.4961 254.422 50.418 253.969 50.418C253.594 50.418 253.27 50.4844 252.996 50.6172C252.723 50.7422 252.512 50.9141 252.363 51.1328C252.223 51.3438 252.152 51.5781 252.152 51.8359C252.152 52.0312 252.191 52.207 252.27 52.3633C252.355 52.5117 252.492 52.6484 252.68 52.7734C252.867 52.8984 253.109 53.0156 253.406 53.125C253.711 53.2266 254.086 53.3203 254.531 53.4062C255.445 53.5938 256.262 53.8398 256.98 54.1445C257.699 54.4414 258.27 54.8477 258.691 55.3633C259.113 55.8711 259.324 56.5391 259.324 57.3672C259.324 57.9297 259.199 58.4453 258.949 58.9141C258.699 59.3828 258.34 59.793 257.871 60.1445C257.402 60.4883 256.84 60.7578 256.184 60.9531C255.535 61.1406 254.805 61.2344 253.992 61.2344C252.812 61.2344 251.812 61.0234 250.992 60.6016C250.18 60.1797 249.562 59.6445 249.141 58.9961C248.727 58.3398 248.52 57.668 248.52 56.9805H251.719C251.734 57.4414 251.852 57.8125 252.07 58.0938C252.297 58.375 252.582 58.5781 252.926 58.7031C253.277 58.8281 253.656 58.8906 254.062 58.8906C254.5 58.8906 254.863 58.832 255.152 58.7148C255.441 58.5898 255.66 58.4258 255.809 58.2227C255.965 58.0117 256.043 57.7695 256.043 57.4961Z" fill="#888888"/>
<path d="M118.594 98.4219V104.75H101.086V98.4219H118.594ZM103.828 84.875V119H95.6016V84.875H103.828ZM124.125 84.875V119H115.922V84.875H124.125ZM127.992 106.578V106.086C127.992 104.227 128.258 102.516 128.789 100.953C129.32 99.375 130.102 98.0078 131.133 96.8516C132.164 95.6953 133.438 94.7969 134.953 94.1562C136.469 93.5 138.219 93.1719 140.203 93.1719C142.203 93.1719 143.961 93.5 145.477 94.1562C147.008 94.7969 148.289 95.6953 149.32 96.8516C150.352 98.0078 151.133 99.375 151.664 100.953C152.195 102.516 152.461 104.227 152.461 106.086V106.578C152.461 108.422 152.195 110.133 151.664 111.711C151.133 113.273 150.352 114.641 149.32 115.812C148.289 116.969 147.016 117.867 145.5 118.508C143.984 119.148 142.234 119.469 140.25 119.469C138.266 119.469 136.508 119.148 134.977 118.508C133.445 117.867 132.164 116.969 131.133 115.812C130.102 114.641 129.32 113.273 128.789 111.711C128.258 110.133 127.992 108.422 127.992 106.578ZM135.891 106.086V106.578C135.891 107.531 135.961 108.422 136.102 109.25C136.242 110.078 136.477 110.805 136.805 111.43C137.133 112.039 137.578 112.516 138.141 112.859C138.703 113.203 139.406 113.375 140.25 113.375C141.078 113.375 141.766 113.203 142.312 112.859C142.875 112.516 143.32 112.039 143.648 111.43C143.977 110.805 144.211 110.078 144.352 109.25C144.492 108.422 144.562 107.531 144.562 106.578V106.086C144.562 105.164 144.492 104.297 144.352 103.484C144.211 102.656 143.977 101.93 143.648 101.305C143.32 100.664 142.875 100.164 142.312 99.8047C141.75 99.4453 141.047 99.2656 140.203 99.2656C139.375 99.2656 138.68 99.4453 138.117 99.8047C137.57 100.164 137.133 100.664 136.805 101.305C136.477 101.93 136.242 102.656 136.102 103.484C135.961 104.297 135.891 105.164 135.891 106.086ZM163.688 111.453L168.375 93.6406H173.32L171.562 102.57L166.922 119H162.961L163.688 111.453ZM161.836 93.6406L164.742 111.312L165.07 119H160.266L154.266 93.6406H161.836ZM177.492 110.938L180.422 93.6406H187.992L182.039 119H177.234L177.492 110.938ZM173.883 93.6406L178.617 111.406L179.344 119H175.336L170.789 102.617L169.102 93.6406H173.883ZM218.297 84.875V119H210.07V84.875H218.297ZM228.562 84.875V91.2266H200.039V84.875H228.562ZM225.773 106.578V106.086C225.773 104.227 226.039 102.516 226.57 100.953C227.102 99.375 227.883 98.0078 228.914 96.8516C229.945 95.6953 231.219 94.7969 232.734 94.1562C234.25 93.5 236 93.1719 237.984 93.1719C239.984 93.1719 241.742 93.5 243.258 94.1562C244.789 94.7969 246.07 95.6953 247.102 96.8516C248.133 98.0078 248.914 99.375 249.445 100.953C249.977 102.516 250.242 104.227 250.242 106.086V106.578C250.242 108.422 249.977 110.133 249.445 111.711C248.914 113.273 248.133 114.641 247.102 115.812C246.07 116.969 244.797 117.867 243.281 118.508C241.766 119.148 240.016 119.469 238.031 119.469C236.047 119.469 234.289 119.148 232.758 118.508C231.227 117.867 229.945 116.969 228.914 115.812C227.883 114.641 227.102 113.273 226.57 111.711C226.039 110.133 225.773 108.422 225.773 106.578ZM233.672 106.086V106.578C233.672 107.531 233.742 108.422 233.883 109.25C234.023 110.078 234.258 110.805 234.586 111.43C234.914 112.039 235.359 112.516 235.922 112.859C236.484 113.203 237.188 113.375 238.031 113.375C238.859 113.375 239.547 113.203 240.094 112.859C240.656 112.516 241.102 112.039 241.43 111.43C241.758 110.805 241.992 110.078 242.133 109.25C242.273 108.422 242.344 107.531 242.344 106.578V106.086C242.344 105.164 242.273 104.297 242.133 103.484C241.992 102.656 241.758 101.93 241.43 101.305C241.102 100.664 240.656 100.164 240.094 99.8047C239.531 99.4453 238.828 99.2656 237.984 99.2656C237.156 99.2656 236.461 99.4453 235.898 99.8047C235.352 100.164 234.914 100.664 234.586 101.305C234.258 101.93 234.023 102.656 233.883 103.484C233.742 104.297 233.672 105.164 233.672 106.086ZM266.086 84.875H279.516C282.141 84.875 284.422 85.2656 286.359 86.0469C288.297 86.8281 289.789 87.9844 290.836 89.5156C291.898 91.0469 292.43 92.9375 292.43 95.1875C292.43 97.1406 292.125 98.7734 291.516 100.086C290.906 101.398 290.055 102.484 288.961 103.344C287.883 104.188 286.625 104.883 285.188 105.43L282.492 106.953H271.219L271.172 100.602H279.516C280.562 100.602 281.43 100.414 282.117 100.039C282.805 99.6641 283.32 99.1328 283.664 98.4453C284.023 97.7422 284.203 96.9062 284.203 95.9375C284.203 94.9531 284.023 94.1094 283.664 93.4062C283.305 92.7031 282.773 92.1641 282.07 91.7891C281.383 91.4141 280.531 91.2266 279.516 91.2266H274.312V119H266.086V84.875ZM284.766 119L277.219 103.906L285.938 103.859L293.578 118.648V119H284.766ZM311.836 112.836V93.6406H319.758V119H312.352L311.836 112.836ZM312.586 107.68L314.648 107.633C314.648 109.336 314.445 110.914 314.039 112.367C313.633 113.805 313.031 115.055 312.234 116.117C311.453 117.18 310.484 118.008 309.328 118.602C308.188 119.18 306.867 119.469 305.367 119.469C304.117 119.469 302.969 119.297 301.922 118.953C300.891 118.594 300 118.039 299.25 117.289C298.5 116.523 297.914 115.547 297.492 114.359C297.086 113.156 296.883 111.719 296.883 110.047V93.6406H304.781V110.094C304.781 110.656 304.852 111.141 304.992 111.547C305.133 111.953 305.336 112.297 305.602 112.578C305.867 112.844 306.195 113.047 306.586 113.188C306.992 113.312 307.453 113.375 307.969 113.375C309.156 113.375 310.086 113.125 310.758 112.625C311.43 112.125 311.898 111.445 312.164 110.586C312.445 109.727 312.586 108.758 312.586 107.68ZM331.875 99.0547V119H323.977V93.6406H331.383L331.875 99.0547ZM330.938 105.453L329.086 105.5C329.086 103.562 329.32 101.836 329.789 100.32C330.258 98.7891 330.922 97.4922 331.781 96.4297C332.641 95.3672 333.664 94.5625 334.852 94.0156C336.055 93.4531 337.391 93.1719 338.859 93.1719C340.031 93.1719 341.102 93.3438 342.07 93.6875C343.055 94.0312 343.898 94.5859 344.602 95.3516C345.32 96.1172 345.867 97.1328 346.242 98.3984C346.633 99.6484 346.828 101.195 346.828 103.039V119H338.883V103.016C338.883 102 338.742 101.227 338.461 100.695C338.18 100.148 337.773 99.7734 337.242 99.5703C336.711 99.3672 336.062 99.2656 335.297 99.2656C334.484 99.2656 333.797 99.4219 333.234 99.7344C332.672 100.047 332.219 100.484 331.875 101.047C331.547 101.594 331.305 102.242 331.148 102.992C331.008 103.742 330.938 104.562 330.938 105.453ZM363.773 108.195H357.047C357.047 106.82 357.141 105.609 357.328 104.562C357.531 103.5 357.875 102.547 358.359 101.703C358.844 100.859 359.5 100.078 360.328 99.3594C361.062 98.75 361.695 98.1641 362.227 97.6016C362.758 97.0391 363.164 96.4688 363.445 95.8906C363.727 95.3125 363.867 94.6953 363.867 94.0391C363.867 93.2266 363.75 92.5625 363.516 92.0469C363.297 91.5312 362.961 91.1484 362.508 90.8984C362.07 90.6328 361.516 90.5 360.844 90.5C360.297 90.5 359.781 90.6328 359.297 90.8984C358.828 91.1641 358.445 91.5781 358.148 92.1406C357.852 92.6875 357.688 93.4141 357.656 94.3203H349.711C349.758 91.9922 350.273 90.1016 351.258 88.6484C352.258 87.1797 353.586 86.1094 355.242 85.4375C356.914 84.75 358.781 84.4062 360.844 84.4062C363.125 84.4062 365.086 84.7578 366.727 85.4609C368.367 86.1641 369.625 87.2109 370.5 88.6016C371.375 89.9766 371.812 91.6719 371.812 93.6875C371.812 95.0312 371.555 96.2031 371.039 97.2031C370.539 98.1875 369.859 99.1094 369 99.9688C368.156 100.812 367.211 101.719 366.164 102.688C365.258 103.484 364.641 104.297 364.312 105.125C363.984 105.938 363.805 106.961 363.773 108.195ZM356.086 115.32C356.086 114.195 356.492 113.258 357.305 112.508C358.117 111.742 359.172 111.359 360.469 111.359C361.766 111.359 362.82 111.742 363.633 112.508C364.445 113.258 364.852 114.195 364.852 115.32C364.852 116.445 364.445 117.391 363.633 118.156C362.82 118.906 361.766 119.281 360.469 119.281C359.172 119.281 358.117 118.906 357.305 118.156C356.492 117.391 356.086 116.445 356.086 115.32Z" fill="black"/>
<path d="M1134 0H1348C1356.28 0 1363 6.71573 1363 15V148C1363 156.284 1356.28 163 1348 163H1134V0Z" fill="#EA580C"/>
<path d="M1260.62 78.8078C1263.81 78.8078 1266.93 79.7552 1269.59 81.5302C1272.25 83.3052 1274.32 85.8281 1275.54 88.7798C1276.76 91.7315 1277.08 94.9795 1276.46 98.1131C1275.84 101.247 1274.3 104.125 1272.04 106.384C1269.78 108.643 1266.9 110.182 1263.77 110.805C1260.63 111.428 1257.39 111.108 1254.43 109.886C1251.48 108.663 1248.96 106.593 1247.18 103.936C1245.41 101.28 1244.46 98.1565 1244.46 94.9616C1244.46 90.6774 1246.16 86.5686 1249.19 83.5392C1252.22 80.5097 1256.33 78.8078 1260.62 78.8078V78.8078ZM1260.62 73.4232C1256.36 73.4232 1252.19 74.6864 1248.65 77.0531C1245.11 79.4198 1242.35 82.7836 1240.72 86.7192C1239.09 90.6549 1238.66 94.9855 1239.49 99.1636C1240.32 103.342 1242.37 107.179 1245.39 110.192C1248.4 113.204 1252.24 115.255 1256.41 116.086C1260.59 116.917 1264.92 116.491 1268.86 114.861C1272.79 113.23 1276.16 110.47 1278.52 106.928C1280.89 103.386 1282.15 99.2215 1282.15 94.9616C1282.15 89.2493 1279.88 83.7709 1275.85 79.7317C1271.81 75.6924 1266.33 73.4232 1260.62 73.4232Z" fill="white"/>
<path d="M1274.08 46.5H1220.23C1218.8 46.5 1217.43 47.0673 1216.42 48.0771C1215.41 49.0869 1214.85 50.4565 1214.85 51.8846V105.731C1214.85 107.159 1215.41 108.528 1216.42 109.538C1217.43 110.548 1218.8 111.115 1220.23 111.115H1231V105.731H1220.23V68.0384H1279.46V51.8846C1279.46 50.4565 1278.89 49.0869 1277.88 48.0771C1276.87 47.0673 1275.5 46.5 1274.08 46.5V46.5ZM1220.23 62.6538V51.8846H1274.08V62.6538H1220.23Z" fill="white"/>
<path d="M1255.23 86.8849V103.039L1268.69 94.9618L1255.23 86.8849Z" fill="white"/>
</svg>
